<svg width="26" height="26" viewBox="0 0 26 26" fill="none" xmlns="http://www.w3.org/2000/svg">
<path fill-rule="evenodd" clip-rule="evenodd" d="M2.96588 1.17934C3.721 0.424222 4.74516 0 5.81306 0C8.04251 0 9.83877 1.79575 9.83958 4.025C9.8427 5.0673 9.44066 6.07005 8.71832 6.82152C7.99562 7.57335 7.00893 8.01476 5.96675 8.05245C5.91742 8.05423 5.86804 8.05198 5.81911 8.04573C5.77015 8.05199 5.72075 8.05423 5.6714 8.05244C3.51433 7.97429 1.8021 6.2082 1.78656 4.033L1.78654 4.02652C1.78654 2.95862 2.21076 1.93446 2.96588 1.17934ZM9.83958 4.025C9.83958 4.02551 9.83958 4.02601 9.83958 4.02652H8.93271L9.83958 4.02346C9.83958 4.02397 9.83958 4.02449 9.83958 4.025ZM5.81306 1.81375C5.2262 1.81375 4.66337 2.04688 4.24839 2.46185C3.83418 2.87607 3.60115 3.43759 3.60029 4.02329C3.61042 5.21029 4.52382 6.16205 5.6731 6.23665C5.76964 6.22808 5.86851 6.22808 5.96506 6.23665C6.51313 6.2009 7.02904 5.96167 7.41072 5.56459C7.80719 5.15214 8.02777 4.60169 8.02584 4.02958L8.02583 4.02652C8.02583 2.79827 7.04131 1.81375 5.81306 1.81375ZM20.1417 1.81375C18.9134 1.81375 17.9289 2.79827 17.9289 4.02652L17.9289 4.02958C17.927 4.60169 18.1475 5.15214 18.544 5.56459C18.9258 5.9618 19.4419 6.20106 19.9902 6.23668C20.0866 6.2281 20.1835 6.22806 20.2799 6.23658C20.8297 6.19966 21.3471 5.95973 21.7308 5.56213C22.1292 5.14936 22.3526 4.59862 22.3544 4.025C22.354 3.43868 22.1209 2.87647 21.7063 2.46185C21.2914 2.04688 20.7285 1.81375 20.1417 1.81375ZM16.1151 4.02499C16.116 1.79574 17.9122 0 20.1417 0C21.2096 0 22.2337 0.424222 22.9888 1.17934C23.744 1.93446 24.1682 2.95862 24.1682 4.02652L24.1682 4.02901C24.1653 5.07115 23.7596 6.07181 23.0359 6.82168C22.3122 7.57155 21.3265 8.01253 20.2852 8.05238C20.2352 8.05429 20.1852 8.05206 20.1356 8.04573C20.0867 8.05198 20.0373 8.05423 19.988 8.05245C18.9458 8.01476 17.9591 7.57335 17.2364 6.82152C16.5141 6.07005 16.112 5.06729 16.1151 4.02499ZM16.1151 4.02499C16.1151 4.02448 16.1152 4.02397 16.1152 4.02346L17.022 4.02652H16.1151C16.1151 4.02601 16.1151 4.0255 16.1151 4.02499ZM12.8867 10.8462C11.6584 10.8462 10.6739 11.8307 10.6739 13.059L10.6739 13.062C10.672 13.6341 10.8925 14.1846 11.289 14.5971C11.6708 14.9943 12.1869 15.2335 12.7352 15.2691C12.8333 15.2604 12.932 15.2605 13.0301 15.2695C14.1703 15.2044 15.0893 14.2494 15.0994 13.0557C15.0986 12.4701 14.8656 11.9085 14.4513 11.4943C14.0364 11.0793 13.4735 10.8462 12.8867 10.8462ZM8.86016 13.0575C8.86098 10.8282 10.6572 9.03246 12.8867 9.03246C13.9546 9.03246 14.9787 9.45668 15.7339 10.2118C16.489 10.9669 16.9132 11.9911 16.9132 13.059V13.0655H16.9132C16.8977 15.2348 15.1898 17.0223 13.0218 17.0851C12.9746 17.0865 12.9274 17.0842 12.8806 17.0782C12.8317 17.0844 12.7823 17.0867 12.733 17.0849C11.6908 17.0472 10.7041 16.6058 9.98142 15.854C9.25907 15.1025 8.85704 14.0998 8.86016 13.0575ZM8.86016 13.0575C8.86016 13.0569 8.86016 13.0564 8.86016 13.0559L9.76703 13.059H8.86016C8.86016 13.0585 8.86016 13.058 8.86016 13.0575ZM6.82947 10.9777C5.355 10.7194 3.75149 10.9926 2.68772 11.6981C2.02505 12.1402 1.81375 12.6331 1.81375 13.0106C1.81375 13.3883 2.02524 13.8815 2.68861 14.3237L2.69025 14.3248C3.74098 15.0286 5.32076 15.3028 6.79953 15.0545C7.29347 14.9716 7.76111 15.3048 7.84403 15.7987C7.92696 16.2927 7.59376 16.7603 7.09982 16.8432C5.26581 17.1511 3.19433 16.8451 1.6817 15.8323C0.640629 15.138 0 14.132 0 13.0106C0 11.8889 0.640965 10.8828 1.68252 10.1884L1.68415 10.1873C3.208 9.17614 5.30413 8.86913 7.14244 9.19117C7.63578 9.27759 7.96565 9.74758 7.87922 10.2409C7.7928 10.7343 7.32281 11.0641 6.82947 10.9777ZM18.8123 9.19117C20.6506 8.86913 22.7467 9.17614 24.2706 10.1873L24.2722 10.1884C25.3138 10.8827 25.9547 11.8889 25.9547 13.0106C25.9547 14.1323 25.3138 15.1385 24.2722 15.8329C22.7597 16.8452 20.6886 17.1511 18.8549 16.8432C18.361 16.7603 18.0278 16.2927 18.1107 15.7987C18.1936 15.3048 18.6613 14.9716 19.1552 15.0545C20.634 15.3028 22.2137 15.0286 23.2645 14.3248L23.2661 14.3237C23.9295 13.8815 24.141 13.3883 24.141 13.0106C24.141 12.6331 23.9297 12.1402 23.2671 11.6982C22.2033 10.9926 20.5998 10.7194 19.1253 10.9777C18.6319 11.0641 18.1619 10.7343 18.0755 10.2409C17.9891 9.74758 18.319 9.27759 18.8123 9.19117ZM13 18.1193C14.413 18.1193 15.8746 18.4712 17.0172 19.2329C18.0588 19.9273 18.6997 20.9335 18.6997 22.0552C18.6997 23.1765 18.0592 24.1823 17.0183 24.8767C15.8707 25.6441 14.4093 26.0001 12.9955 26.0001C11.5817 26.0001 10.1203 25.6441 8.9727 24.8767C7.93178 24.1823 7.29126 23.1765 7.29126 22.0552C7.29126 20.9335 7.93223 19.9273 8.97379 19.2329L8.97597 19.2315C10.1234 18.4713 11.5869 18.1193 13 18.1193ZM9.97837 20.7431C9.31619 21.1851 9.10501 21.6778 9.10501 22.0552C9.10501 22.4328 9.31651 22.926 9.97987 23.3683L9.98096 23.369C10.7681 23.8954 11.858 24.1863 12.9955 24.1863C14.133 24.1863 15.2229 23.8954 16.01 23.369L16.0111 23.3683C16.6745 22.926 16.886 22.4328 16.886 22.0552C16.886 21.6775 16.6745 21.1843 16.0111 20.7421C15.2312 20.2221 14.1415 19.9331 13 19.9331C11.8592 19.9331 10.7655 20.2218 9.97837 20.7431Z" fill="#515150"/>
</svg>
