<svg width="28" height="28" viewBox="0 0 28 28" fill="none" xmlns="http://www.w3.org/2000/svg">
<g clip-path="url(#clip0_0_277)">
<path fill-rule="evenodd" clip-rule="evenodd" d="M14 7.875C14.4833 7.875 14.875 8.26675 14.875 8.75V9.03H14.98C16.5728 9.03 17.8033 10.3688 17.8033 11.9467C17.8033 12.4299 17.4116 12.8217 16.9283 12.8217C16.4451 12.8217 16.0533 12.4299 16.0533 11.9467C16.0533 11.2612 15.5338 10.78 14.98 10.78H14.875V13.3707L16.0551 13.7823C16.4662 13.9286 16.936 14.1583 17.2869 14.6077C17.6456 15.067 17.7917 15.6399 17.7917 16.2983C17.7917 17.7306 16.6832 18.9583 15.225 18.9583H14.875V19.25C14.875 19.7332 14.4833 20.125 14 20.125C13.5168 20.125 13.125 19.7332 13.125 19.25V18.9583H13.0317C11.4388 18.9583 10.2083 17.6195 10.2083 16.0417C10.2083 15.5584 10.6001 15.1667 11.0833 15.1667C11.5666 15.1667 11.9583 15.5584 11.9583 16.0417C11.9583 16.7271 12.4778 17.2083 13.0317 17.2083H13.125V14.6136L11.9566 14.206C11.551 14.0617 11.079 13.8361 10.7262 13.3869C10.3651 12.927 10.22 12.352 10.22 11.69C10.22 10.2732 11.3249 9.03 12.7867 9.03H13.125V8.75C13.125 8.26675 13.5168 7.875 14 7.875ZM13.125 10.78H12.7867C12.3818 10.78 11.97 11.1468 11.97 11.69C11.97 12.1013 12.0583 12.2497 12.1025 12.306C12.1551 12.3729 12.2601 12.4562 12.541 12.5565L13.125 12.7602V10.78ZM14.875 15.2241V17.2083H15.225C15.6335 17.2083 16.0417 16.8494 16.0417 16.2983C16.0417 15.8951 15.9544 15.7446 15.9077 15.6848C15.8533 15.6152 15.7461 15.5302 15.4707 15.4319L14.875 15.2241Z" fill="#515150"/>
<path fill-rule="evenodd" clip-rule="evenodd" d="M14 3.20831C8.04326 3.20831 3.20834 8.04323 3.20834 14C3.20834 19.9567 8.04326 24.7916 14 24.7916C19.9568 24.7916 24.7917 19.9567 24.7917 14C24.7917 13.5167 25.1834 13.125 25.6667 13.125C26.1499 13.125 26.5417 13.5167 26.5417 14C26.5417 20.9232 20.9233 26.5416 14 26.5416C7.07676 26.5416 1.45834 20.9232 1.45834 14C1.45834 7.07673 7.07676 1.45831 14 1.45831C14.4833 1.45831 14.875 1.85006 14.875 2.33331C14.875 2.81656 14.4833 3.20831 14 3.20831Z" fill="#515150"/>
<path fill-rule="evenodd" clip-rule="evenodd" d="M26.2854 1.71459C26.6271 2.0563 26.6271 2.61032 26.2854 2.95203L21.9458 7.29165H24.5C24.9833 7.29165 25.375 7.6834 25.375 8.16665C25.375 8.6499 24.9833 9.04165 24.5 9.04165H19.8333C19.3501 9.04165 18.9583 8.6499 18.9583 8.16665V3.49998C18.9583 3.01673 19.3501 2.62498 19.8333 2.62498C20.3166 2.62498 20.7083 3.01673 20.7083 3.49998V6.05421L25.048 1.71459C25.3897 1.37289 25.9437 1.37289 26.2854 1.71459Z" fill="#515150"/>
</g>
<defs>
<clipPath id="clip0_0_277">
<rect width="28" height="28" fill="white"/>
</clipPath>
</defs>
</svg>
