<svg width="26" height="26" viewBox="0 0 26 26" fill="none" xmlns="http://www.w3.org/2000/svg">
<path fill-rule="evenodd" clip-rule="evenodd" d="M13 1.81395C6.82555 1.81395 1.81395 6.82555 1.81395 13C1.81395 19.1744 6.82555 24.186 13 24.186C19.1744 24.186 24.186 19.1744 24.186 13C24.186 12.4991 24.5921 12.093 25.093 12.093C25.5939 12.093 26 12.4991 26 13C26 20.1762 20.1762 26 13 26C5.82373 26 0 20.1762 0 13C0 5.82373 5.82373 0 13 0C13.5009 0 13.907 0.406067 13.907 0.906975C13.907 1.40788 13.5009 1.81395 13 1.81395Z" fill="#515150"/>
</svg>
