<svg width="24" height="24" viewBox="0 0 24 24" fill="none" xmlns="http://www.w3.org/2000/svg">
<path fill-rule="evenodd" clip-rule="evenodd" d="M3.09467 3.09467C4.42914 1.7602 6.42603 1.25 9 1.25H11C11.4142 1.25 11.75 1.58579 11.75 2C11.75 2.41421 11.4142 2.75 11 2.75H9C6.57397 2.75 5.07086 3.2398 4.15533 4.15533C3.2398 5.07086 2.75 6.57397 2.75 9V15C2.75 17.426 3.2398 18.9291 4.15533 19.8447C5.07086 20.7602 6.57397 21.25 9 21.25H15C17.426 21.25 18.9291 20.7602 19.8447 19.8447C20.7602 18.9291 21.25 17.426 21.25 15V13C21.25 12.5858 21.5858 12.25 22 12.25C22.4142 12.25 22.75 12.5858 22.75 13V15C22.75 17.574 22.2398 19.5709 20.9053 20.9053C19.5709 22.2398 17.574 22.75 15 22.75H9C6.42603 22.75 4.42914 22.2398 3.09467 20.9053C1.7602 19.5709 1.25 17.574 1.25 15V9C1.25 6.42603 1.7602 4.42914 3.09467 3.09467Z" fill="white"/>
<path fill-rule="evenodd" clip-rule="evenodd" d="M18.1967 1.01359C19.3101 0.9043 20.4139 1.39324 21.5103 2.48967C22.6068 3.5861 23.0957 4.68992 22.9864 5.80327C22.881 6.87727 22.2333 7.7674 21.5103 8.49033L13.6216 16.379C13.3965 16.597 13.1021 16.7874 12.8181 16.9301C12.5357 17.072 12.2031 17.1972 11.8861 17.2425L8.87226 17.673C8.13018 17.7751 7.42015 17.5725 6.92201 17.0764C6.4228 16.5792 6.2186 15.8689 6.32774 15.1226C6.32782 15.1221 6.32789 15.1216 6.32796 15.1211L6.75721 12.1164C6.75727 12.1159 6.75733 12.1155 6.75739 12.115C6.80243 11.7938 6.92695 11.4588 7.06989 11.1744C7.21314 10.8894 7.406 10.5934 7.62968 10.3697L15.5097 2.48967C16.2326 1.76674 17.1227 1.11901 18.1967 1.01359ZM18.3433 2.50641C17.7873 2.56099 17.2074 2.91326 16.5703 3.55033L8.69034 11.4303C8.61403 11.5066 8.50689 11.6556 8.41013 11.8481C8.31327 12.0408 8.25793 12.2153 8.24282 12.3236L8.24247 12.3261L7.81247 15.3361L7.81206 15.3389C7.7617 15.682 7.86256 15.8961 7.98052 16.0136C8.09967 16.1323 8.3191 16.2345 8.66598 16.1872C8.66657 16.1872 8.66717 16.1871 8.66777 16.187L11.6739 15.7575C11.7769 15.7428 11.9493 15.688 12.1444 15.5899C12.3352 15.494 12.4892 15.3862 12.5748 15.3045L20.4497 7.42967C21.0868 6.7926 21.439 6.21272 21.4936 5.65673C21.5443 5.14008 21.3533 4.4539 20.4497 3.55033C19.5461 2.64676 18.8599 2.4557 18.3433 2.50641Z" fill="white"/>
<path fill-rule="evenodd" clip-rule="evenodd" d="M14.7067 3.42808C15.1054 3.3158 15.5196 3.54799 15.6319 3.9467C15.9287 5.00055 16.4911 5.96054 17.2653 6.73471C18.0394 7.50889 18.9994 8.0713 20.0533 8.36808C20.452 8.48036 20.6842 8.8946 20.5719 9.2933C20.4596 9.69201 20.0454 9.9242 19.6467 9.81192C18.3456 9.44552 17.1604 8.75116 16.2046 7.79537C15.2488 6.83959 14.5545 5.65438 14.1881 4.3533C14.0758 3.9546 14.308 3.54036 14.7067 3.42808Z" fill="white"/>
</svg>
