<svg width="18" height="18" viewBox="0 0 18 18" fill="none" xmlns="http://www.w3.org/2000/svg">
<path d="M5.67693 8.4599H5.12308V9.5399H5.67693V8.4599ZM12.3231 9.5399H12.8769V8.4599H12.3231V9.5399ZM5.67693 5.2199H5.12308V6.2999H5.67693V5.2199ZM7.89231 6.2999H8.44616V5.2199H7.89231V6.2999ZM12.3231 1.4399L12.7152 1.05758L12.5524 0.899902H12.3231V1.4399ZM15.6462 4.6799H16.2V4.45634L16.0383 4.29758L15.6462 4.6799ZM9 13.3199L9.24813 13.8027L9.29243 13.7811L9.33231 13.7519L9 13.3199ZM5.67693 9.5399H12.3231V8.4599H5.67693V9.5399ZM5.67693 6.2999H7.89231V5.2199H5.67693V6.2999ZM14.5385 16.0199H3.46154V17.0999H14.5385V16.0199ZM2.9077 15.4799V2.5199H1.8V15.4799H2.9077ZM3.46154 1.9799H12.3231V0.899902H3.46154V1.9799ZM15.0923 4.6799V15.4799H16.2V4.6799H15.0923ZM11.931 1.82222L15.254 5.06222L16.0383 4.29758L12.7152 1.05758L11.931 1.82222ZM3.46154 16.0199C3.31465 16.0199 3.17378 15.963 3.06991 15.8617C2.96605 15.7605 2.9077 15.6231 2.9077 15.4799H1.8C1.8 15.9096 1.97506 16.3216 2.28666 16.6254C2.59826 16.9292 3.02087 17.0999 3.46154 17.0999V16.0199ZM14.5385 17.0999C14.9791 17.0999 15.4018 16.9292 15.7134 16.6254C16.0249 16.3216 16.2 15.9096 16.2 15.4799H15.0923C15.0923 15.6231 15.034 15.7605 14.9301 15.8617C14.8262 15.963 14.6854 16.0199 14.5385 16.0199V17.0999ZM2.9077 2.5199C2.9077 2.37669 2.96605 2.23933 3.06991 2.13806C3.17378 2.0368 3.31465 1.9799 3.46154 1.9799V0.899902C3.02087 0.899902 2.59826 1.07058 2.28666 1.37439C1.97506 1.6782 1.8 2.09025 1.8 2.5199H2.9077ZM6.75582 13.4905C6.87877 13.1309 7.2288 12.7972 7.6752 12.6805C8.0928 12.5715 8.63003 12.6427 9.16173 13.1622L9.94597 12.3976C9.14843 11.62 8.208 11.4223 7.38831 11.6373C6.59853 11.8446 5.95163 12.4289 5.70462 13.1493L6.75582 13.4905ZM9.16173 13.1622C9.19289 13.1917 9.22212 13.2231 9.24923 13.2562L10.1243 12.5931C10.0691 12.5247 10.0095 12.4598 9.94597 12.3987L9.16173 13.1622ZM9.24923 13.2562C9.33563 13.3642 9.3157 13.3987 9.31902 13.375C9.32123 13.3599 9.32566 13.3847 9.2592 13.443C9.16344 13.5211 9.05483 13.5828 8.93797 13.6255C8.79757 13.6806 8.65113 13.7198 8.50154 13.7422C8.41029 13.7591 8.31697 13.7628 8.22462 13.753C8.20579 13.7487 8.24456 13.753 8.30216 13.7929C8.37279 13.8461 8.42471 13.9194 8.45071 14.0026C8.47672 14.0858 8.47551 14.1748 8.44726 14.2573C8.44099 14.2752 8.43243 14.2923 8.42179 14.3081C8.41957 14.3103 8.4384 14.2865 8.50154 14.2357C8.62782 14.1364 8.86043 13.9917 9.24813 13.8037L8.75188 12.8371C8.33428 13.0402 8.0208 13.2259 7.80591 13.3955C7.69693 13.4784 7.60004 13.5754 7.51791 13.6839C7.41345 13.8202 7.35885 13.9868 7.36283 14.1569C7.36762 14.2565 7.39553 14.3537 7.44445 14.4413C7.49338 14.5288 7.56205 14.6044 7.6453 14.6623C7.77046 14.7531 7.90893 14.7919 8.01083 14.8125C8.21797 14.8524 8.45391 14.8416 8.6677 14.8103C9.08862 14.7477 9.6336 14.5705 10.0047 14.2422C10.1974 14.0705 10.3802 13.8243 10.419 13.5013C10.4588 13.1709 10.337 12.8609 10.1232 12.5941L9.24923 13.2562ZM9.33231 13.7519C9.50953 13.6198 9.70212 13.5085 9.9061 13.4203L9.46634 12.4289C9.2005 12.5412 8.93465 12.6935 8.6677 12.8879L9.33231 13.7519ZM9.9061 13.4203C10.6261 13.1169 11.2697 13.2767 11.9287 13.5823C12.0949 13.6601 12.2566 13.7443 12.4206 13.8307C12.5801 13.915 12.7484 14.0046 12.9079 14.0845C13.2137 14.2347 13.5925 14.3999 13.9846 14.3999V13.3199C13.8805 13.3199 13.7099 13.2691 13.4086 13.1212C13.2668 13.0499 13.1184 12.97 12.9478 12.8803C12.7817 12.7929 12.5978 12.6967 12.4051 12.6082C11.6319 12.2485 10.6206 11.9429 9.46634 12.4289L9.9061 13.4203Z" fill="#21466E"/>
</svg>
