<svg width="37" height="44" viewBox="0 0 37 44" fill="none" xmlns="http://www.w3.org/2000/svg">
<path d="M37 30.4706V35.9118C37 40.1123 33.5829 43.5294 29.3823 43.5294H7.61765C3.41706 43.5294 0 40.1123 0 35.9118V34.497C0 31.08 2.78588 28.2941 6.20294 28.2941H34.8235C36.0206 28.2941 37 29.2735 37 30.4706ZM26.1176 0H10.8824C2.17647 0 0 2.17647 0 10.8824V27.38C1.65412 25.9218 3.83059 25.0294 6.20294 25.0294H34.8235C36.0206 25.0294 37 24.05 37 22.8529V10.8824C37 2.17647 34.8235 0 26.1176 0ZM20.6765 19.0441H9.79411C8.90176 19.0441 8.16176 18.3041 8.16176 17.4118C8.16176 16.5194 8.90176 15.7794 9.79411 15.7794H20.6765C21.5688 15.7794 22.3088 16.5194 22.3088 17.4118C22.3088 18.3041 21.5688 19.0441 20.6765 19.0441ZM27.2059 11.4265H9.79411C8.90176 11.4265 8.16176 10.6865 8.16176 9.79411C8.16176 8.90176 8.90176 8.16176 9.79411 8.16176H27.2059C28.0982 8.16176 28.8382 8.90176 28.8382 9.79411C28.8382 10.6865 28.0982 11.4265 27.2059 11.4265Z" fill="#27AAE1"/>
</svg>
