<svg width="28" height="28" viewBox="0 0 28 28" fill="none" xmlns="http://www.w3.org/2000/svg">
<g clip-path="url(#clip0_0_249)">
<path d="M17.5 8.24839C17.5 7.46673 17.115 6.7434 16.4617 6.31173L11.795 3.19673C11.0133 2.67173 9.98667 2.67173 9.205 3.19673L4.53833 6.31173C3.89667 6.7434 3.5 7.46673 3.5 8.24839V14.8751C3.5 15.2017 3.75667 15.4584 4.08333 15.4584H16.9167C17.2433 15.4584 17.5 15.2017 17.5 14.8751V8.24839ZM10.5 12.5417C9.38 12.5417 8.45833 11.6201 8.45833 10.5001C8.45833 9.38006 9.38 8.4584 10.5 8.4584C11.62 8.4584 12.5417 9.38006 12.5417 10.5001C12.5417 11.6201 11.62 12.5417 10.5 12.5417Z" fill="#27AAE1"/>
<path d="M25.6667 24.7929H24.185V21.2929C25.2933 20.9312 26.0983 19.8929 26.0983 18.6679V16.3345C26.0983 14.8062 24.85 13.5579 23.3217 13.5579C21.7933 13.5579 20.545 14.8062 20.545 16.3345V18.6679C20.545 19.8812 21.3383 20.9079 22.4233 21.2812V24.7929H17.5V17.7929C17.5 17.4662 17.2433 17.2095 16.9167 17.2095H4.08334C3.75667 17.2095 3.5 17.4662 3.5 17.7929V24.7929H2.33334C1.855 24.7929 1.45834 25.1895 1.45834 25.6679C1.45834 26.1462 1.855 26.5429 2.33334 26.5429H23.2517C23.275 26.5429 23.2867 26.5545 23.31 26.5545C23.3333 26.5545 23.345 26.5429 23.3683 26.5429H25.6667C26.145 26.5429 26.5417 26.1462 26.5417 25.6679C26.5417 25.1895 26.145 24.7929 25.6667 24.7929ZM9.625 21.2929C9.625 20.8145 10.0217 20.4179 10.5 20.4179C10.9783 20.4179 11.375 20.8145 11.375 21.2929V24.7929H9.625V21.2929Z" fill="#27AAE1"/>
</g>
<defs>
<clipPath id="clip0_0_249">
<rect width="28" height="28" fill="white"/>
</clipPath>
</defs>
</svg>
