<svg width="26" height="25" viewBox="0 0 26 25" fill="none" xmlns="http://www.w3.org/2000/svg">
<path fill-rule="evenodd" clip-rule="evenodd" d="M15.5639 0.959512C15.5642 0.959785 15.5646 0.960058 15.5649 0.960331L23.7662 7.51666C24.3741 8.00608 24.8295 8.72284 25.1083 9.45363C25.3872 10.1847 25.525 11.0231 25.3991 11.7946L25.3985 11.7978L23.8247 21.2174L23.8242 21.2201C23.4679 23.3137 21.4782 24.9999 19.3518 24.9999H6.09815C3.96076 24.9999 1.98175 23.3262 1.62561 21.219L0.0523828 11.8032C0.0522122 11.8023 0.052042 11.8013 0.0518723 11.8003C-0.0816383 11.0265 0.0534187 10.186 0.332817 9.45363C0.612395 8.72082 1.07191 8.00355 1.68667 7.51434C1.68716 7.51395 1.68764 7.51357 1.68813 7.51318L9.88588 0.947872C11.4661 -0.318932 13.9748 -0.316844 15.5639 0.959512ZM14.4529 2.34388C13.5097 1.58579 11.9245 1.58838 10.9963 2.33268L2.79264 8.90273C2.48511 9.14718 2.18777 9.57129 1.99127 10.0864C1.79471 10.6015 1.7345 11.1147 1.80131 11.4999L1.80225 11.5053L3.37584 20.9232C3.3758 20.923 3.37587 20.9235 3.37584 20.9232C3.58804 22.1765 4.82768 23.2249 6.09815 23.2249H19.3518C20.6094 23.2249 21.8618 22.1664 22.0741 20.9235C22.0742 20.9231 22.0743 20.9227 22.0743 20.9222L23.6472 11.5085C23.6473 11.508 23.6474 11.5075 23.6475 11.5069C23.7104 11.1188 23.647 10.6031 23.4499 10.0864C23.2526 9.5693 22.9571 9.14449 22.6541 8.90009C22.6537 8.8998 22.6533 8.89952 22.653 8.89924L14.4547 2.34534L14.4529 2.34388ZM12.725 15.1661C13.2152 15.1661 13.6125 15.5635 13.6125 16.0537V19.6038C13.6125 20.0939 13.2152 20.4913 12.725 20.4913C12.2348 20.4913 11.8375 20.0939 11.8375 19.6038V16.0537C11.8375 15.5635 12.2348 15.1661 12.725 15.1661Z" fill="#515150"/>
</svg>
