<svg width="36" height="49" viewBox="0 0 36 49" fill="none" xmlns="http://www.w3.org/2000/svg">
<path d="M17.9704 4.53921e-07C14.0168 -0.000887961 10.1733 1.30235 7.03561 3.70773C3.89792 6.11311 1.64125 9.4863 0.615374 13.3045C-0.410501 17.1227 -0.148294 21.1726 1.36135 24.8267C2.871 28.4807 5.54379 31.5347 8.96545 33.5155C10.4594 34.3822 11.3936 35.7106 11.435 37.0499C11.4464 37.4087 11.5757 37.7536 11.8028 38.0315C12.03 38.3095 12.3423 38.5048 12.6916 38.5874C13.4581 38.7682 14.2378 38.9097 15.0305 39.0121C15.7339 39.1014 16.3371 38.5373 16.3371 37.8274V27.6769C15.649 27.6013 14.9671 27.4768 14.2966 27.3045C14.0888 27.2511 13.8936 27.1572 13.7221 27.0283C13.5506 26.8993 13.4062 26.7379 13.2971 26.5532C13.188 26.3684 13.1164 26.164 13.0863 25.9516C13.0562 25.7392 13.0682 25.5229 13.1217 25.3152C13.1752 25.1074 13.269 24.9122 13.398 24.7407C13.5269 24.5692 13.6883 24.4248 13.873 24.3157C14.0578 24.2066 14.2622 24.135 14.4746 24.1049C14.687 24.0748 14.9033 24.0868 15.111 24.1403C16.9866 24.6237 18.9542 24.6237 20.8298 24.1403C21.0397 24.0798 21.2595 24.062 21.4764 24.088C21.6932 24.114 21.9026 24.1832 22.0923 24.2916C22.2819 24.3999 22.4479 24.5452 22.5804 24.7188C22.7129 24.8924 22.8092 25.0908 22.8637 25.3023C22.9182 25.5138 22.9297 25.7341 22.8975 25.9501C22.8654 26.1661 22.7903 26.3735 22.6766 26.56C22.5629 26.7465 22.4129 26.9082 22.2356 27.0357C22.0583 27.1633 21.8572 27.2539 21.6443 27.3024C20.9738 27.4754 20.2919 27.6006 19.6037 27.6769V37.8252C19.6011 37.9922 19.6342 38.1578 19.7006 38.311C19.767 38.4643 19.8653 38.6016 19.9889 38.7139C20.1125 38.8262 20.2586 38.9108 20.4175 38.9622C20.5764 39.0137 20.7444 39.0306 20.9104 39.0121C21.6968 38.9109 22.4775 38.7691 23.2493 38.5874C23.5985 38.5048 23.9109 38.3095 24.138 38.0315C24.3651 37.7536 24.4944 37.4087 24.5058 37.0499C24.5494 35.7106 25.4815 34.3822 26.9754 33.5155C30.397 31.5347 33.0698 28.4807 34.5795 24.8267C36.0891 21.1726 36.3513 17.1227 35.3255 13.3045C34.2996 9.4863 32.0429 6.11311 28.9052 3.70773C25.7675 1.30235 21.924 -0.000887961 17.9704 4.53921e-07Z" fill="#27AAE1"/>
<path fill-rule="evenodd" clip-rule="evenodd" d="M11.4655 41.7038C11.5055 41.493 11.5866 41.2921 11.7043 41.1127C11.8219 40.9333 11.9737 40.7788 12.1511 40.658C12.3285 40.5373 12.5279 40.4527 12.7379 40.409C12.948 40.3654 13.1646 40.3636 13.3754 40.4037C16.4117 40.9798 19.5292 40.9798 22.5655 40.4037C22.7788 40.3567 22.9994 40.353 23.2142 40.3928C23.429 40.4326 23.6336 40.5151 23.816 40.6354C23.9983 40.7557 24.1547 40.9113 24.2758 41.0931C24.397 41.2749 24.4804 41.4791 24.5212 41.6938C24.562 41.9084 24.5593 42.129 24.5133 42.3425C24.4674 42.5561 24.379 42.7583 24.2535 42.9371C24.128 43.1159 23.9679 43.2677 23.7827 43.3835C23.5975 43.4994 23.3909 43.5769 23.1752 43.6115C19.7361 44.2641 16.2048 44.2641 12.7656 43.6115C12.3404 43.5307 11.9645 43.2844 11.7208 42.9267C11.477 42.569 11.3852 42.1291 11.4655 41.7038ZM13.0792 47.0262C13.1015 46.8128 13.1656 46.6059 13.2679 46.4174C13.3701 46.2288 13.5085 46.0622 13.6751 45.9271C13.8418 45.792 14.0334 45.6911 14.239 45.6301C14.4447 45.569 14.6603 45.5491 14.8737 45.5714C16.9326 45.7866 19.0083 45.7866 21.0672 45.5714C21.2805 45.5491 21.4962 45.5691 21.7018 45.6301C21.9075 45.6911 22.0991 45.7921 22.2657 45.9272C22.4323 46.0622 22.5707 46.2288 22.673 46.4174C22.7752 46.606 22.8393 46.8128 22.8616 47.0262C22.8839 47.2395 22.864 47.4552 22.803 47.6608C22.7419 47.8665 22.641 48.0581 22.5059 48.2247C22.3708 48.3913 22.2043 48.5297 22.0157 48.632C21.8271 48.7342 21.6203 48.7983 21.4069 48.8206C19.1222 49.0598 16.8187 49.0598 14.534 48.8206C14.3206 48.7983 14.1137 48.7342 13.9251 48.632C13.7366 48.5298 13.57 48.3914 13.4349 48.2247C13.2998 48.0581 13.1989 47.8665 13.1378 47.6608C13.0768 47.4552 13.0569 47.2395 13.0792 47.0262Z" fill="#27AAE1"/>
</svg>
