<svg width="5" height="9" viewBox="0 0 5 9" fill="none" xmlns="http://www.w3.org/2000/svg">
<path fill-rule="evenodd" clip-rule="evenodd" d="M0 2.50003C0 1.11597 1.11597 0 2.50003 0C3.88408 0 5.00006 1.11597 5.00006 2.50003C5.00006 3.59229 4.28187 4.16873 3.81193 4.48988C3.61025 4.62924 3.48026 4.73883 3.39607 4.85176C3.32613 4.94557 3.27804 5.05408 3.27804 5.22827V5.44612C3.27804 5.87581 2.92971 6.22414 2.50003 6.22414C2.07034 6.22414 1.72201 5.87581 1.72201 5.44612V5.22827C1.72201 4.11118 2.45712 3.53442 2.92934 3.20836L2.93263 3.20609L2.93264 3.2061C3.12474 3.07491 3.25043 2.96781 3.3311 2.85895C3.39865 2.76779 3.44402 2.66362 3.44402 2.50003C3.44402 1.97535 3.02471 1.55603 2.50003 1.55603C1.97535 1.55603 1.55603 1.97535 1.55603 2.50003C1.55603 2.92972 1.2077 3.27805 0.778017 3.27805C0.34833 3.27805 0 2.92972 0 2.50003ZM1.71682 7.9254C1.71682 7.49571 2.06515 7.14738 2.49484 7.14738H2.50521C2.9349 7.14738 3.28323 7.49571 3.28323 7.9254C3.28323 8.35509 2.9349 8.70342 2.50521 8.70342H2.49484C2.06515 8.70342 1.71682 8.35509 1.71682 7.9254Z" fill="#F1F4F8"/>
</svg>
