<svg width="19" height="21" viewBox="0 0 19 21" fill="none" xmlns="http://www.w3.org/2000/svg">
<path d="M9.08999 13C4.07999 13 0 16.36 0 20.5C0 20.78 0.22 21 0.499999 21H17.68C17.96 21 18.18 20.78 18.18 20.5C18.18 16.36 14.1 13 9.08999 13ZM12.8 1.66001C12.3344 1.13641 11.7629 0.717665 11.1233 0.431494C10.4837 0.145323 9.79066 -0.0017476 9.08999 1.56695e-05C7.68999 1.56695e-05 6.40999 0.570015 5.49999 1.51001C4.62999 2.41001 4.08999 3.65001 4.08999 5.00001C4.08999 5.94001 4.34999 6.82001 4.81999 7.57C5.06999 8 5.38999 8.39 5.76999 8.71C6.63999 9.51 7.79999 10 9.08999 10C10.92 10 12.5 9.02 13.37 7.57C13.63 7.14001 13.83 6.66001 13.94 6.16001C14.04 5.79001 14.09 5.40001 14.09 5.00001C14.09 3.72001 13.6 2.55001 12.8 1.66001ZM10.96 5.92001H10.03V6.89001C10.03 7.13931 9.93095 7.3784 9.75467 7.55469C9.57838 7.73097 9.33929 7.83 9.08999 7.83C8.84068 7.83 8.60159 7.73097 8.42531 7.55469C8.24902 7.3784 8.14999 7.13931 8.14999 6.89001V5.92001H7.21999C6.97069 5.92001 6.73159 5.82097 6.55531 5.64469C6.37903 5.4684 6.27999 5.22931 6.27999 4.98001C6.27999 4.73071 6.37903 4.49161 6.55531 4.31533C6.73159 4.13904 6.97069 4.04001 7.21999 4.04001H8.14999V3.15001C8.14999 2.90071 8.24902 2.66162 8.42531 2.48533C8.60159 2.30905 8.84068 2.21001 9.08999 2.21001C9.33929 2.21001 9.57838 2.30905 9.75467 2.48533C9.93095 2.66162 10.03 2.90071 10.03 3.15001V4.04001H10.96C11.2093 4.04001 11.4484 4.13904 11.6247 4.31533C11.8009 4.49161 11.9 4.73071 11.9 4.98001C11.9 5.22931 11.8009 5.4684 11.6247 5.64469C11.4484 5.82097 11.2093 5.92001 10.96 5.92001Z" fill="#27AAE1"/>
</svg>
