<svg width="26" height="13" viewBox="0 0 26 13" fill="none" xmlns="http://www.w3.org/2000/svg">
<path d="M24.2147 11.238H22.7326V7.73703C23.8413 7.37527 24.6465 6.33667 24.6465 5.11134V2.7774C24.6465 1.24866 23.3978 0 21.8691 0C20.3403 0 19.0917 1.24866 19.0917 2.7774V5.11134C19.0917 6.325 19.8852 7.35193 20.9705 7.72536V11.238H16.0459V4.23611C16.0459 3.90936 15.7892 3.65263 15.4624 3.65263H2.62569C2.29894 3.65263 2.0422 3.90936 2.0422 4.23611V11.238H0.87523C0.396771 11.238 0 11.6347 0 12.1132C0 12.5916 0.396771 12.9884 0.87523 12.9884H21.7991C21.8224 12.9884 21.8341 13.0001 21.8574 13.0001C21.8808 13.0001 21.8924 12.9884 21.9158 12.9884H24.2147C24.6932 12.9884 25.0899 12.5916 25.0899 12.1132C25.0899 11.6347 24.6932 11.238 24.2147 11.238ZM8.16881 7.73703C8.16881 7.25857 8.56559 6.8618 9.04404 6.8618C9.5225 6.8618 9.91927 7.25857 9.91927 7.73703V11.238H8.16881V7.73703Z" fill="#27AAE1"/>
</svg>
