<svg width="40" height="44" viewBox="0 0 40 44" fill="none" xmlns="http://www.w3.org/2000/svg">
<path d="M36.498 8.47L23.43 0.924C21.296 -0.308 18.656 -0.308 16.5 0.924L3.45401 8.47C2.40191 9.08 1.52886 9.95613 0.922576 11.0104C0.316289 12.0646 -0.00188746 13.2599 8.42326e-06 14.476V29.524C8.42326e-06 31.988 1.32001 34.276 3.45401 35.53L16.522 43.076C18.656 44.308 21.296 44.308 23.452 43.076L36.52 35.53C37.5721 34.92 38.4451 34.0439 39.0514 32.9896C39.6577 31.9354 39.9759 30.7401 39.974 29.524V14.476C39.9644 13.2596 39.639 12.0665 39.0297 11.0136C38.4204 9.9608 37.548 9.08429 36.498 8.47ZM18.326 12.65C18.326 11.748 19.074 11 19.976 11C20.878 11 21.626 11.748 21.626 12.65V24.2C21.626 25.102 20.878 25.85 19.976 25.85C19.074 25.85 18.326 25.102 18.326 24.2V12.65ZM22 32.186C21.89 32.45 21.736 32.692 21.538 32.912C21.2302 33.2198 20.8373 33.4283 20.4098 33.5107C19.9824 33.593 19.5401 33.5454 19.14 33.374C18.854 33.264 18.634 33.11 18.414 32.912C18.216 32.692 18.062 32.45 17.93 32.186C17.824 31.9202 17.7717 31.6361 17.776 31.35C17.776 30.778 17.996 30.206 18.414 29.788C18.634 29.59 18.854 29.436 19.14 29.326C19.954 28.974 20.922 29.172 21.538 29.788C21.736 30.008 21.89 30.228 22 30.514C22.11 30.778 22.176 31.064 22.176 31.35C22.176 31.636 22.11 31.922 22 32.186Z" fill="#27AAE1"/>
</svg>
