<svg width="24" height="24" viewBox="0 0 24 24" fill="none" xmlns="http://www.w3.org/2000/svg">
<path fill-rule="evenodd" clip-rule="evenodd" d="M10.9188 1.34971H5.40039C3.86241 1.34971 2.65039 2.60967 2.65039 4.19971V6.49971C2.65039 6.94295 2.7913 7.42637 2.97851 7.844C3.16722 8.26497 3.43664 8.69424 3.76277 9.02272L7.53274 12.9911C7.67454 13.1744 7.83169 13.4474 7.95403 13.7533C8.08319 14.0761 8.15039 14.3778 8.15039 14.5997V19.8997C8.15039 22.1307 10.6319 23.3225 12.3935 22.2385L12.406 22.2306L13.7975 21.336C14.2009 21.09 14.5044 20.6907 14.7033 20.3082C14.9064 19.9176 15.0504 19.4489 15.0504 18.9997V14.6997C15.0504 14.4151 15.124 14.0645 15.2658 13.7301C15.4091 13.3924 15.5975 13.1284 15.7805 12.9759C15.7861 12.9712 15.7916 12.9665 15.797 12.9617L20.097 9.16171C20.1086 9.1515 20.1198 9.14094 20.1307 9.13004C20.4579 8.80283 20.7549 8.34736 20.9707 7.87256C21.1856 7.39979 21.3504 6.84123 21.3504 6.29971V4.09971C21.3504 2.5855 20.1146 1.34971 18.6004 1.34971H10.9434C10.9352 1.34958 10.927 1.34958 10.9188 1.34971ZM9.57829 2.84971H5.40039C4.73837 2.84971 4.15039 3.38975 4.15039 4.19971V6.49971C4.15039 6.65648 4.20949 6.92305 4.34727 7.23042C4.48216 7.53132 4.66013 7.79879 4.83072 7.96938L4.84414 7.98315L5.76793 8.95556L9.57829 2.84971ZM6.83506 10.0789L11.3464 2.84971H18.6004C19.2862 2.84971 19.8504 3.41392 19.8504 4.09971V6.29971C19.8504 6.55819 19.7652 6.89963 19.6051 7.25186C19.4504 7.5923 19.2541 7.88013 19.0846 8.05465L14.8112 11.8311C14.3988 12.1781 14.0902 12.6605 13.885 13.1443C13.6768 13.6349 13.5504 14.1844 13.5504 14.6997V18.9997C13.5504 19.1505 13.4944 19.3818 13.3725 19.6162C13.2482 19.8552 13.1055 20.002 13.0145 20.0566C13.0079 20.0606 13.0013 20.0646 12.9948 20.0688L11.6017 20.9644C10.7639 21.4743 9.65039 20.8665 9.65039 19.8997V14.5997C9.65039 14.1216 9.51759 13.6233 9.34675 13.1962C9.17429 12.765 8.93967 12.3482 8.68604 12.0312C8.67276 12.0146 8.65878 11.9986 8.64414 11.9831L6.83506 10.0789Z" fill="#3774B7"/>
</svg>
