<svg width="8" height="13" viewBox="0 0 8 13" fill="none" xmlns="http://www.w3.org/2000/svg">
<path fill-rule="evenodd" clip-rule="evenodd" d="M3.99387 0C4.50289 0 4.91553 0.412642 4.91553 0.921663V1.21659H5.02613C6.70391 1.21659 8.00003 2.6268 8.00003 4.2888C8.00003 4.79782 7.58739 5.21047 7.07837 5.21047C6.56935 5.21047 6.15671 4.79782 6.15671 4.2888C6.15671 3.56677 5.6095 3.05992 5.02613 3.05992H4.91553V5.78873L6.15855 6.22234C6.59161 6.37648 7.08646 6.61841 7.45609 7.09176C7.83391 7.57558 7.98774 8.17904 7.98774 8.87254C7.98774 10.3812 6.8201 11.6744 5.2842 11.6744H4.91553V11.9816C4.91553 12.4906 4.50289 12.9033 3.99387 12.9033C3.48485 12.9033 3.07221 12.4906 3.07221 11.9816V11.6744H2.9739C1.29612 11.6744 0 10.2642 0 8.60218C0 8.09316 0.412642 7.68052 0.921663 7.68052C1.43068 7.68052 1.84333 8.09316 1.84333 8.60218C1.84333 9.32422 2.39053 9.83107 2.9739 9.83107H3.07221V7.09797L1.84148 6.66865C1.41424 6.51658 0.917067 6.27897 0.545496 5.80582C0.165087 5.32142 0.0122891 4.71576 0.0122891 4.01845C0.0122891 2.52609 1.17612 1.21659 2.71583 1.21659H3.07221V0.921663C3.07221 0.412642 3.48485 0 3.99387 0ZM3.07221 3.05992H2.71583C2.28933 3.05992 1.85561 3.44628 1.85561 4.01845C1.85561 4.45171 1.94859 4.60796 1.99522 4.66734C2.05053 4.73776 2.16116 4.82553 2.45704 4.93112L3.07221 5.14571V3.05992ZM4.91553 7.74099V9.83107H5.2842C5.71451 9.83107 6.14442 9.45297 6.14442 8.87254C6.14442 8.44776 6.05248 8.2893 6.00326 8.22627C5.94602 8.15298 5.83307 8.06341 5.54298 7.95987L4.91553 7.74099Z" fill="#515150"/>
</svg>
