<svg width="28" height="28" viewBox="0 0 28 28" fill="none" xmlns="http://www.w3.org/2000/svg">
<path fill-rule="evenodd" clip-rule="evenodd" d="M16.7992 2.61858C16.7995 2.61885 16.7998 2.61912 16.8002 2.61939L24.8858 9.0832C25.485 9.56571 25.934 10.2724 26.2089 10.9928C26.4839 11.7135 26.6197 12.5402 26.4956 13.3007L26.495 13.3039L24.9434 22.5906L24.9429 22.5932C24.5916 24.6573 22.6301 26.3197 20.5337 26.3197H7.46701C5.35978 26.3197 3.40869 24.6696 3.05758 22.5922L1.50655 13.3093C1.50639 13.3083 1.50622 13.3073 1.50605 13.3064C1.37442 12.5435 1.50758 11.7148 1.78303 10.9928C2.05866 10.2704 2.51169 9.56322 3.11778 9.08091C3.11826 9.08053 3.11874 9.08015 3.11922 9.07977L11.2013 2.6071C12.7592 1.35818 15.2325 1.36023 16.7992 2.61858ZM15.7039 3.98342C14.7739 3.23602 13.2112 3.23857 12.2961 3.97237L4.20815 10.4497C3.90495 10.6907 3.61181 11.1088 3.41808 11.6166C3.2243 12.1245 3.16494 12.6305 3.2308 13.0102L3.23173 13.0155L4.78311 22.3006C4.78307 22.3004 4.78315 22.3008 4.78311 22.3006C4.99232 23.5362 6.21447 24.5697 7.46701 24.5697H20.5337C21.7735 24.5697 23.0082 23.5262 23.2175 22.3009C23.2176 22.3004 23.2177 22.3 23.2177 22.2996L24.7684 13.0187C24.7685 13.0182 24.7686 13.0177 24.7687 13.0172C24.8308 12.6345 24.7682 12.1261 24.5739 11.6166C24.3794 11.1069 24.088 10.6881 23.7893 10.4471C23.7889 10.4468 23.7886 10.4465 23.7882 10.4463L15.7056 3.98485L15.7039 3.98342ZM14.0003 16.6247C14.4836 16.6247 14.8753 17.0165 14.8753 17.4997V20.9997C14.8753 21.483 14.4836 21.8747 14.0003 21.8747C13.5171 21.8747 13.1253 21.483 13.1253 20.9997V17.4997C13.1253 17.0165 13.5171 16.6247 14.0003 16.6247Z" fill="#515150"/>
</svg>
