<svg width="22" height="22" viewBox="0 0 22 22" fill="none" xmlns="http://www.w3.org/2000/svg">
<path fill-rule="evenodd" clip-rule="evenodd" d="M1.88757 1.88757C3.25307 0.522066 5.2964 0 7.93023 0H9.97674C10.4006 0 10.7442 0.343595 10.7442 0.767442C10.7442 1.19129 10.4006 1.53488 9.97674 1.53488H7.93023C5.44779 1.53488 3.90972 2.03607 2.9729 2.9729C2.03607 3.90972 1.53488 5.44779 1.53488 7.93023V14.0698C1.53488 16.5522 2.03607 18.0903 2.9729 19.0271C3.90972 19.9639 5.44779 20.4651 7.93023 20.4651H14.0698C16.5522 20.4651 18.0903 19.9639 19.0271 19.0271C19.9639 18.0903 20.4651 16.5522 20.4651 14.0698V12.0233C20.4651 11.5994 20.8087 11.2558 21.2326 11.2558C21.6564 11.2558 22 11.5994 22 12.0233V14.0698C22 16.7036 21.4779 18.7469 20.1124 20.1124C18.7469 21.4779 16.7036 22 14.0698 22H7.93023C5.2964 22 3.25307 21.4779 1.88757 20.1124C0.522066 18.7469 0 16.7036 0 14.0698V7.93023C0 5.2964 0.522066 3.25307 1.88757 1.88757Z" fill="#F1F4F8"/>
</svg>
