<svg width="28" height="28" viewBox="0 0 28 28" fill="none" xmlns="http://www.w3.org/2000/svg">
<path d="M24.3016 9.345L16.6599 3.23167C15.1666 2.04167 12.8333 2.03 11.3516 3.22L3.70994 9.345C2.61327 10.22 1.94827 11.97 2.1816 13.3467L3.6516 22.1433C3.98994 24.115 5.8216 25.6667 7.8166 25.6667H20.1833C22.1549 25.6667 24.0216 24.08 24.3599 22.1317L25.8299 13.335C26.0399 11.97 25.3749 10.22 24.3016 9.345ZM14.8749 21C14.8749 21.4783 14.4783 21.875 13.9999 21.875C13.5216 21.875 13.1249 21.4783 13.1249 21V17.5C13.1249 17.0217 13.5216 16.625 13.9999 16.625C14.4783 16.625 14.8749 17.0217 14.8749 17.5V21Z" fill="#27AAE1"/>
</svg>
