<svg width="18" height="18" viewBox="0 0 18 18" fill="none" xmlns="http://www.w3.org/2000/svg">
<path d="M9 5.8125V9.75M15.81 6.435V11.565C15.81 12.405 15.36 13.185 14.6325 13.6125L10.1775 16.185C9.45 16.605 8.55 16.605 7.815 16.185L3.36 13.6125C3.00133 13.4045 2.7037 13.1059 2.49701 12.7465C2.29032 12.3871 2.18185 11.9796 2.1825 11.565V6.435C2.1825 5.595 2.6325 4.815 3.36 4.3875L7.815 1.815C8.5425 1.395 9.4425 1.395 10.1775 1.815L14.6325 4.3875C15.36 4.815 15.81 5.5875 15.81 6.435Z" stroke="#21466E" stroke-width="1.5" stroke-linecap="round" stroke-linejoin="round"/>
<path d="M9 12.1499V12.2249" stroke="#21466E" stroke-width="2" stroke-linecap="round" stroke-linejoin="round"/>
</svg>
