<svg width="20" height="20" viewBox="0 0 20 20" fill="none" xmlns="http://www.w3.org/2000/svg">
<path fill-rule="evenodd" clip-rule="evenodd" d="M2.57889 2.57897C3.69095 1.46692 5.35502 1.04175 7.5 1.04175H9.16666C9.51184 1.04175 9.79166 1.32157 9.79166 1.66675C9.79166 2.01193 9.51184 2.29175 9.16666 2.29175H7.5C5.47831 2.29175 4.22572 2.69991 3.46277 3.46286C2.69983 4.2258 2.29166 5.47839 2.29166 7.50008V12.5001C2.29166 14.5218 2.69983 15.7744 3.46277 16.5373C4.22572 17.3002 5.47831 17.7084 7.5 17.7084H12.5C14.5217 17.7084 15.7743 17.3002 16.5372 16.5373C17.3002 15.7744 17.7083 14.5218 17.7083 12.5001V10.8334C17.7083 10.4882 17.9882 10.2084 18.3333 10.2084C18.6785 10.2084 18.9583 10.4882 18.9583 10.8334V12.5001C18.9583 14.6451 18.5332 16.3091 17.4211 17.4212C16.309 18.5332 14.645 18.9584 12.5 18.9584H7.5C5.35502 18.9584 3.69095 18.5332 2.57889 17.4212C1.46683 16.3091 1.04166 14.6451 1.04166 12.5001V7.50008C1.04166 5.3551 1.46683 3.69103 2.57889 2.57897Z" fill="#3774B7"/>
<path fill-rule="evenodd" clip-rule="evenodd" d="M15.1639 0.844748C16.0917 0.753676 17.0116 1.16112 17.9253 2.07482C18.839 2.98851 19.2464 3.90836 19.1553 4.83615C19.0675 5.73116 18.5277 6.47293 17.9253 7.07537L11.3514 13.6493C11.1637 13.8309 10.9184 13.9896 10.6817 14.1085C10.4464 14.2268 10.1693 14.3311 9.90506 14.3688L7.39354 14.7276C6.77514 14.8127 6.18345 14.6439 5.76833 14.2304C5.35232 13.8161 5.18216 13.2242 5.27311 12.6022C5.27317 12.6018 5.27323 12.6014 5.27329 12.601L5.631 10.0971C5.63105 10.0967 5.6311 10.0963 5.63115 10.0959C5.66868 9.82824 5.77245 9.54911 5.89157 9.31212C6.01094 9.07463 6.17165 8.82789 6.35806 8.64148L12.9247 2.07482C13.5272 1.47238 14.2689 0.932601 15.1639 0.844748ZM15.2861 2.08877C14.8227 2.13425 14.3395 2.42781 13.8086 2.9587L7.24194 9.52537C7.17835 9.58896 7.08906 9.71305 7.00843 9.87348C6.92771 10.0341 6.8816 10.1795 6.869 10.2698L6.86872 10.2718L6.51039 12.7801L6.51004 12.7825C6.46807 13.0684 6.55213 13.2469 6.65042 13.3448C6.74972 13.4436 6.93257 13.5289 7.22164 13.4895C7.22214 13.4894 7.22263 13.4893 7.22313 13.4893L9.72828 13.1314C9.81406 13.1191 9.95774 13.0734 10.1204 12.9917C10.2793 12.9118 10.4077 12.8219 10.479 12.7539L17.0414 6.19148C17.5723 5.66059 17.8658 5.17736 17.9113 4.71404C17.9536 4.28349 17.7944 3.71167 17.0414 2.9587C16.2884 2.20573 15.7166 2.04651 15.2861 2.08877Z" fill="#3774B7"/>
<path fill-rule="evenodd" clip-rule="evenodd" d="M12.2556 2.85681C12.5878 2.76324 12.933 2.95674 13.0266 3.28899C13.2739 4.1672 13.7426 4.9672 14.3877 5.61234C15.0329 6.25748 15.8329 6.72616 16.7111 6.97348C17.0433 7.06705 17.2368 7.41224 17.1433 7.7445C17.0497 8.07675 16.7045 8.27025 16.3723 8.17668C15.288 7.87134 14.3003 7.29272 13.5039 6.49622C12.7074 5.69973 12.1287 4.71207 11.8234 3.62783C11.7298 3.29558 11.9233 2.95038 12.2556 2.85681Z" fill="#3774B7"/>
</svg>
