<svg width="16" height="16" viewBox="0 0 16 16" fill="none" xmlns="http://www.w3.org/2000/svg">
<path fill-rule="evenodd" clip-rule="evenodd" d="M2.83475 2.83469C4.11625 1.55319 5.85433 0.833252 7.66665 0.833252C8.56401 0.833252 9.45259 1.01 10.2816 1.35341C11.1107 1.69682 11.864 2.20016 12.4985 2.83469C13.1331 3.46922 13.6364 4.22252 13.9798 5.05158C14.3232 5.88064 14.5 6.76922 14.5 7.66659C14.5 8.56395 14.3232 9.45253 13.9798 10.2816C13.6364 11.1106 13.1331 11.8639 12.4985 12.4985C11.864 13.133 11.1107 13.6364 10.2816 13.9798C9.45259 14.3232 8.56401 14.4999 7.66665 14.4999C5.85433 14.4999 4.11625 13.78 2.83475 12.4985C1.55325 11.217 0.833313 9.4789 0.833313 7.66659C0.833313 5.85427 1.55325 4.11619 2.83475 2.83469ZM7.66665 1.83325C6.11955 1.83325 4.63582 2.44783 3.54186 3.5418C2.44789 4.63576 1.83331 6.11949 1.83331 7.66659C1.83331 9.21368 2.44789 10.6974 3.54186 11.7914C4.63582 12.8853 6.11955 13.4999 7.66665 13.4999C8.43269 13.4999 9.19123 13.349 9.89897 13.0559C10.6067 12.7627 11.2498 12.333 11.7914 11.7914C12.3331 11.2497 12.7628 10.6066 13.0559 9.89891C13.3491 9.19117 13.5 8.43263 13.5 7.66659C13.5 6.90054 13.3491 6.142 13.0559 5.43427C12.7628 4.72653 12.3331 4.08347 11.7914 3.5418C11.2498 3.00012 10.6067 2.57044 9.89897 2.27729C9.19123 1.98414 8.43269 1.83325 7.66665 1.83325ZM12.9798 12.9797C13.175 12.7844 13.4916 12.7844 13.6869 12.9797L15.0202 14.313C15.2155 14.5083 15.2155 14.8249 15.0202 15.0201C14.8249 15.2154 14.5084 15.2154 14.3131 15.0201L12.9798 13.6868C12.7845 13.4915 12.7845 13.175 12.9798 12.9797Z" fill="#3774B7"/>
</svg>
