<svg width="28" height="28" viewBox="0 0 28 28" fill="none" xmlns="http://www.w3.org/2000/svg">
<g clip-path="url(#clip0_0_284)">
<path fill-rule="evenodd" clip-rule="evenodd" d="M4.32288 2.5962C5.05146 1.86762 6.03963 1.45831 7.06999 1.45831C9.22109 1.45831 10.9542 3.19094 10.955 5.34185C10.958 6.34752 10.5701 7.31502 9.87314 8.04007C9.17584 8.76549 8.22383 9.19138 7.21828 9.22774C7.17068 9.22946 7.12304 9.22729 7.07583 9.22126C7.02859 9.2273 6.98093 9.22946 6.93331 9.22774C4.85205 9.15233 3.20001 7.44831 3.18502 5.34956L3.18499 5.34331C3.18499 4.31295 3.5943 3.32478 4.32288 2.5962ZM10.955 5.34185C10.955 5.34234 10.955 5.34283 10.955 5.34331H10.08L10.955 5.34036C10.955 5.34086 10.955 5.34135 10.955 5.34185ZM7.06999 3.20831C6.50376 3.20831 5.96071 3.43325 5.56032 3.83364C5.16066 4.23329 4.93582 4.77508 4.93499 5.34019C4.94477 6.48548 5.82607 7.40379 6.93495 7.47577C7.0281 7.4675 7.1235 7.46749 7.21665 7.47576C7.74546 7.44127 8.24323 7.21044 8.6115 6.82733C8.99403 6.42937 9.20686 5.89827 9.205 5.34626L9.20499 5.34331C9.20499 4.15823 8.25508 3.20831 7.06999 3.20831ZM20.895 3.20831C19.7099 3.20831 18.76 4.15823 18.76 5.34331L18.76 5.34626C18.7581 5.89827 18.971 6.42937 19.3535 6.82733C19.7219 7.21057 20.2199 7.44142 20.7489 7.4758C20.8418 7.46751 20.9354 7.46748 21.0283 7.4757C21.5588 7.44007 22.058 7.20858 22.4283 6.82495C22.8127 6.42669 23.0282 5.89531 23.03 5.34184C23.0296 4.77614 22.8047 4.23368 22.4047 3.83364C22.0043 3.43325 21.4612 3.20831 20.895 3.20831ZM17.01 5.34184C17.0108 3.19094 18.7439 1.45831 20.895 1.45831C21.9254 1.45831 22.9135 1.86762 23.6421 2.5962C24.3707 3.32478 24.78 4.31295 24.78 5.34331L24.78 5.34571C24.7772 6.35122 24.3858 7.31672 23.6875 8.04023C22.9892 8.76375 22.0382 9.18923 21.0334 9.22767C20.9852 9.22952 20.937 9.22737 20.8892 9.22126C20.8419 9.22729 20.7943 9.22946 20.7467 9.22774C19.7412 9.19138 18.7891 8.76549 18.0918 8.04007C17.3949 7.31502 17.007 6.34751 17.01 5.34184ZM17.01 5.34184C17.01 5.34134 17.01 5.34085 17.01 5.34036L17.885 5.34331H17.01C17.01 5.34282 17.01 5.34233 17.01 5.34184ZM13.895 11.9233C12.7099 11.9233 11.76 12.8732 11.76 14.0583L11.76 14.0613C11.7581 14.6133 11.971 15.1444 12.3535 15.5423C12.7219 15.9256 13.2199 16.1564 13.7489 16.1908C13.8435 16.1824 13.9388 16.1825 14.0334 16.1912C15.1335 16.1284 16.0202 15.2068 16.03 14.0552C16.0292 13.4901 15.8043 12.9483 15.4047 12.5486C15.0043 12.1482 14.4612 11.9233 13.895 11.9233ZM10.01 14.0568C10.0108 11.9059 11.7439 10.1733 13.895 10.1733C14.9254 10.1733 15.9135 10.5826 16.6421 11.3112C17.3707 12.0398 17.78 13.0279 17.78 14.0583V14.0646H17.78C17.765 16.1577 16.1172 17.8823 14.0253 17.9429C13.9798 17.9443 13.9343 17.942 13.8892 17.9363C13.8419 17.9423 13.7943 17.9445 13.7467 17.9427C12.7412 17.9064 11.7891 17.4805 11.0918 16.7551C10.3949 16.03 10.007 15.0625 10.01 14.0568ZM10.01 14.0568C10.01 14.0563 10.01 14.0559 10.01 14.0554L10.885 14.0583H10.01C10.01 14.0578 10.01 14.0573 10.01 14.0568ZM8.05067 12.0502C6.62803 11.801 5.08088 12.0646 4.05449 12.7453C3.41512 13.1718 3.21124 13.6474 3.21124 14.0116C3.21124 14.376 3.41531 14.8519 4.05536 15.2786L4.05694 15.2797C5.07074 15.9587 6.595 16.2233 8.02179 15.9837C8.49837 15.9037 8.94957 16.2252 9.02958 16.7018C9.10959 17.1784 8.78811 17.6296 8.31153 17.7096C6.54198 18.0066 4.5433 17.7113 3.08384 16.7342C2.07936 16.0642 1.46124 15.0936 1.46124 14.0116C1.46124 12.9294 2.07968 11.9586 3.08463 11.2886L3.0862 11.2876C4.55649 10.3119 6.57895 10.0157 8.35264 10.3264C8.82865 10.4098 9.14692 10.8633 9.06353 11.3393C8.98015 11.8153 8.52667 12.1336 8.05067 12.0502ZM19.6123 10.3264C21.386 10.0157 23.4085 10.3119 24.8788 11.2876L24.8804 11.2886C25.8853 11.9586 26.5037 12.9294 26.5037 14.0116C26.5037 15.0939 25.8853 16.0647 24.8804 16.7347C23.421 17.7115 21.4227 18.0066 19.6535 17.7096C19.1769 17.6296 18.8554 17.1784 18.9354 16.7018C19.0154 16.2252 19.4666 15.9037 19.9432 15.9837C21.37 16.2233 22.8942 15.9587 23.908 15.2797L23.9096 15.2786C24.5497 14.8519 24.7537 14.376 24.7537 14.0116C24.7537 13.6474 24.5499 13.1719 23.9106 12.7453C22.8842 12.0646 21.337 11.801 19.9143 12.0502C19.4383 12.1336 18.9848 11.8153 18.9015 11.3393C18.8181 10.8633 19.1363 10.4098 19.6123 10.3264ZM14.0044 18.9408C15.3676 18.9408 16.7779 19.2803 17.8804 20.0153C18.8853 20.6852 19.5037 21.656 19.5037 22.7383C19.5037 23.8202 18.8857 24.7907 17.8814 25.4607C16.7742 26.2011 15.3641 26.5446 14 26.5446C12.6359 26.5446 11.2258 26.2011 10.1186 25.4607C9.11425 24.7907 8.49624 23.8202 8.49624 22.7383C8.49624 21.656 9.11468 20.6852 10.1196 20.0153L10.1217 20.0139C11.2289 19.2804 12.6409 18.9408 14.0044 18.9408ZM11.0889 21.4723C10.45 21.8988 10.2462 22.3742 10.2462 22.7383C10.2462 23.1027 10.4503 23.5786 11.0904 24.0053L11.0914 24.006C11.8508 24.5138 12.9024 24.7946 14 24.7946C15.0976 24.7946 16.1491 24.5138 16.9086 24.006L16.9096 24.0053C17.5497 23.5786 17.7537 23.1027 17.7537 22.7383C17.7537 22.3739 17.5497 21.8981 16.9096 21.4714C16.1571 20.9697 15.1057 20.6908 14.0044 20.6908C12.9036 20.6908 11.8484 20.9694 11.0889 21.4723Z" fill="#515150"/>
</g>
<defs>
<clipPath id="clip0_0_284">
<rect width="28" height="28" fill="white"/>
</clipPath>
</defs>
</svg>
