<svg width="87" height="87" viewBox="0 0 87 87" fill="none" xmlns="http://www.w3.org/2000/svg">
<path d="M81.9601 84.7896V61.8831L52.8368 36.2541V23.4472L26.4184 0L0 23.4472V45.9642H0.0377246V86.7936H87V84.7933H81.9601V84.7896ZM26.4184 9.95967L33.3295 15.9567H19.5073L26.4184 9.95967ZM33.2729 29.724V48.9816H27.9047V29.724H33.2729ZM25.7771 29.724V48.9816H20.4127V29.724H25.7771ZM5.42477 29.724H10.7892V48.9816H5.42477V29.724ZM8.84637 68.0048H5.42477V60.4954H8.84637V68.0048ZM12.9206 68.0048H9.49901V60.4954H12.9206V68.0048ZM18.285 48.9854H12.9206V29.724H18.285V48.9854ZM34.2726 84.7896H18.5566V58.6766C18.5566 57.5007 19.5073 56.5516 20.673 56.5516H32.1563C33.3295 56.5516 34.2726 57.5044 34.2726 58.6766V84.7896ZM35.4006 29.724H40.765V48.9816H35.4006V29.724ZM42.4928 68.0048H39.0712V60.4954H42.4928V68.0048ZM46.5632 68.0048H43.1416V60.4954H46.5632V68.0048ZM48.2533 48.9854H42.8927V29.724H48.2533V48.9854ZM57.1298 49.0686L68.2057 58.8241H57.1298V49.0686ZM57.1298 59.5728H69.0659L76.2599 65.9025H57.1298V59.5728ZM76.3278 81.0613H57.1298V74.8072H76.3278V81.0613ZM76.3278 74.0547H57.1298V66.6625H76.3278V74.0547Z" fill="#515150"/>
</svg>
