<svg width="52" height="52" viewBox="0 0 52 52" fill="none" xmlns="http://www.w3.org/2000/svg">
<path d="M40.7528 13.5417H43.6995C43.2878 12.9567 42.8545 12.415 42.3995 11.8733L40.7528 13.5417ZM40.1267 9.57667C39.585 9.12167 39.0433 8.68834 38.4583 8.27667V11.2233L40.1267 9.57667ZM42.4233 11.8755L48.815 5.48384C49.4433 4.8555 49.4433 3.8155 48.815 3.18717C48.5092 2.88496 48.0966 2.71548 47.6667 2.71548C47.2367 2.71548 46.8241 2.88496 46.5183 3.18717L40.1267 9.57667C40.95 10.2917 41.7083 11.0738 42.4233 11.8755ZM38.4627 6.5C38.4627 5.61167 37.726 4.875 36.8377 4.875C35.971 4.875 35.2777 5.56834 35.2343 6.41334C36.361 6.955 37.4443 7.56167 38.4627 8.27667V6.5ZM47.1293 15.1667C47.1293 14.2783 46.3927 13.5417 45.5043 13.5417H43.706C44.421 14.56 45.0493 15.6433 45.5693 16.77C46.436 16.7267 47.1293 16.0333 47.1293 15.1667ZM27.625 31.9583H28.275C29.12 31.9583 29.7917 31.2 29.7917 30.2683C29.7917 29.0983 29.4667 28.925 28.73 28.665L27.625 28.275V31.9583Z" fill="#27AAE1"/>
<path d="M45.5867 16.77C45.565 16.77 45.5433 16.7917 45.5 16.7917H36.8333C36.6166 16.7917 36.4216 16.7483 36.205 16.6617C35.806 16.4903 35.488 16.1723 35.3166 15.7733C35.2474 15.5785 35.2108 15.3735 35.2083 15.1667V6.50001C35.2083 6.47834 35.23 6.45668 35.23 6.41334C32.4133 5.09168 29.2933 4.33334 26 4.33334C14.04 4.33334 4.33331 14.04 4.33331 26C4.33331 37.96 14.04 47.6667 26 47.6667C37.96 47.6667 47.6666 37.96 47.6666 26C47.6666 22.7067 46.9083 19.5867 45.5867 16.77ZM29.7916 25.61C31.1783 26.0867 33.0416 27.105 33.0416 30.29C33.0416 32.9983 30.8966 35.23 28.275 35.23H27.625V35.7717C27.625 36.66 26.8883 37.3967 26 37.3967C25.1116 37.3967 24.375 36.66 24.375 35.7717V35.23H24.2016C21.32 35.23 18.9583 32.8033 18.9583 29.8133C18.9583 28.9033 19.695 28.1667 20.5833 28.1667C21.4716 28.1667 22.2083 28.9033 22.2083 29.7917C22.2083 30.9833 23.0966 31.9583 24.2016 31.9583H24.375V27.1483L22.2083 26.39C20.8216 25.9133 18.9583 24.895 18.9583 21.71C18.9583 19.0017 21.1033 16.77 23.725 16.77H24.375V16.25C24.375 15.3617 25.1116 14.625 26 14.625C26.8883 14.625 27.625 15.3617 27.625 16.25V16.7917H27.7983C30.68 16.7917 33.0416 19.2183 33.0416 22.2083C33.0416 23.0967 32.305 23.8333 31.4166 23.8333C30.5283 23.8333 29.7916 23.0967 29.7916 22.2083C29.7916 21.0167 28.9033 20.0417 27.7983 20.0417H27.625V24.8517L29.7916 25.61Z" fill="#27AAE1"/>
<path d="M22.2083 21.7317C22.2083 22.9017 22.5333 23.075 23.27 23.335L24.375 23.725V20.0417H23.725C22.9016 20.0417 22.2083 20.8 22.2083 21.7317Z" fill="#27AAE1"/>
</svg>
