<svg width="20" height="21" viewBox="0 0 20 21" fill="none" xmlns="http://www.w3.org/2000/svg">
<path d="M15.5556 5.77801C15.4858 5.768 15.415 5.768 15.3453 5.77801C14.5974 5.75353 13.8884 5.43873 13.3687 4.90034C12.849 4.36194 12.5594 3.64231 12.5614 2.89401C12.5614 1.3018 13.8532 0 15.4554 0C17.0476 0 18.3494 1.29179 18.3494 2.89401C18.3473 3.64278 18.055 4.36157 17.534 4.89937C17.013 5.43716 16.3039 5.7521 15.5556 5.77801ZM18.8221 12.7176C17.7005 13.4687 16.1283 13.749 14.6763 13.5588C15.0569 12.7376 15.2571 11.8264 15.2672 10.8651C15.2672 9.86367 15.0468 8.91235 14.6263 8.0812C16.1083 7.88092 17.6805 8.16131 18.8121 8.91235C20.3943 9.95379 20.3943 11.6662 18.8221 12.7176ZM4.45017 5.77801C4.52026 5.76799 4.59036 5.76799 4.66046 5.77801C5.40836 5.75353 6.11732 5.43873 6.63701 4.90034C7.15671 4.36194 7.44628 3.64231 7.44431 2.89401C7.44431 2.51462 7.36959 2.13895 7.2244 1.78844C7.07922 1.43793 6.86641 1.11944 6.59814 0.851176C6.32988 0.582907 6.01139 0.370105 5.66088 0.224919C5.31038 0.0797331 4.9347 0.00500681 4.55531 0.00500681C4.17592 0.00500681 3.80025 0.0797331 3.44974 0.224919C3.09923 0.370105 2.78075 0.582907 2.51248 0.851176C2.24421 1.11944 2.03141 1.43793 1.88622 1.78844C1.74103 2.13895 1.66631 2.51462 1.66631 2.89401C1.66631 4.45617 2.89802 5.72794 4.45017 5.77801ZM4.56132 10.8651C4.56132 11.8364 4.77161 12.7577 5.15214 13.5888C3.74018 13.739 2.26814 13.4386 1.18664 12.7276C-0.395548 11.6762 -0.395548 9.9638 1.18664 8.91235C2.25813 8.19135 3.77022 7.90095 5.19219 8.06117C4.78163 8.90233 4.56132 9.85365 4.56132 10.8651ZM10.138 13.8892C10.0515 13.8792 9.96418 13.8792 9.87768 13.8892C8.9873 13.8593 8.14349 13.4841 7.52485 12.8431C6.90621 12.202 6.56129 11.3454 6.56309 10.4545C6.57311 8.55185 8.10523 7.00971 10.0179 7.00971C11.9205 7.00971 13.4627 8.55185 13.4627 10.4545C13.4621 11.3464 13.1151 12.2032 12.4948 12.844C11.8745 13.4849 11.0294 13.8596 10.138 13.8892ZM6.88354 15.9621C5.37144 16.9735 5.37144 18.6358 6.88354 19.6372C8.60592 20.7888 11.4298 20.7888 13.1522 19.6372C14.6643 18.6258 14.6643 16.9635 13.1522 15.9621C11.4398 14.8105 8.61594 14.8105 6.88354 15.9621Z" fill="#27AAE1"/>
</svg>
