<svg width="54" height="57" viewBox="0 0 54 57" fill="none" xmlns="http://www.w3.org/2000/svg">
<path d="M53.9955 34.7771C53.9955 35.233 53.9955 35.5524 53.9955 35.874C53.9955 42.0439 53.9977 48.216 53.9955 54.386C53.9955 56.1283 53.6883 56.4301 51.9357 56.4323C35.3229 56.4345 18.7079 56.4323 2.09511 56.4323C0.271834 56.4323 0.00221003 56.1592 0.00221003 54.3089C0 36.8983 0 19.4877 0 2.0772C0 0.312791 0.302774 0.00220275 2.02881 0C10.0976 0 18.1642 0 26.2331 0.00220275C27.937 0.00220275 28.295 0.363454 28.3017 2.06838C28.3039 2.54638 28.3017 3.02438 28.3017 3.50017C28.3017 6.61707 28.3017 6.61707 25.7358 8.94978C25.7358 6.82413 25.7358 4.79539 25.7358 2.67855C17.9874 2.67855 10.3518 2.67855 2.63436 2.67855C2.63436 19.7036 2.63436 36.7221 2.63436 53.7912C10.3164 53.7912 17.9278 53.7912 25.6562 53.7912C25.6562 44.304 25.6562 34.8519 25.6562 25.1642C26.5955 26.096 27.4022 26.8185 28.1005 27.6313C28.3171 27.8846 28.2906 28.3891 28.2906 28.779C28.2994 36.6384 28.2972 44.5 28.2972 52.3594C28.2972 52.7956 28.2972 53.2317 28.2972 53.756C36.0058 53.756 43.6437 53.756 51.434 53.756C51.434 53.3176 51.434 52.8903 51.434 52.4607C51.434 47.3195 51.4517 42.1761 51.4164 37.0349C51.4097 36.1273 51.4606 35.4687 52.5987 35.4048C53.0098 35.3806 53.3966 35.0568 53.9955 34.7771Z" fill="#BCC3DB"/>
<path d="M46.1852 25.1047C46.9101 25.3559 47.4847 25.5299 48.0417 25.7524C48.6406 25.9902 49.3301 26.1488 49.7898 26.5564C50.9722 27.6027 52.0727 28.7459 53.1645 29.8869C54.2452 31.0169 54.2695 32.517 53.2838 33.5413C52.2473 34.6206 50.7379 34.6316 49.5445 33.5016C48.3953 32.4157 47.2549 31.3143 46.2029 30.138C45.7896 29.6755 45.6084 28.9948 45.3697 28.3957C45.1487 27.8384 44.9896 27.2546 44.7421 26.4903C41.2812 29.116 37.6921 29.9442 33.7759 29.019C30.7526 28.3031 28.3635 26.5938 26.5889 24.054C23.1213 19.0934 23.9125 12.201 28.3989 8.1105C32.9759 3.93849 39.838 3.76007 44.5653 7.64572C49.0317 11.3199 50.9943 18.5097 46.1852 25.1047ZM36.7108 7.44087C31.3449 7.45408 27.0154 11.7539 27.0022 17.0845C26.9889 22.4416 31.3957 26.8493 36.7528 26.8317C42.1298 26.8141 46.4814 22.424 46.4526 17.0427C46.4239 11.7054 42.0812 7.42545 36.7108 7.44087Z" fill="#BCC3DB"/>
<path d="M9.27771 5.4628C9.97608 5.46501 10.6767 5.4606 11.375 5.46501C12.3099 5.47161 12.827 5.9408 12.8425 6.87477C12.8646 8.26911 12.858 9.66345 12.8447 11.0578C12.8359 12.0028 12.29 12.483 11.3883 12.505C9.99155 12.5402 8.59039 12.5469 7.19365 12.5006C6.28533 12.472 5.77923 11.9521 5.77481 11.0159C5.77039 9.69429 5.75713 8.37264 5.77702 7.05319C5.7947 5.90335 6.22345 5.49584 7.39918 5.4628C8.02683 5.44738 8.65227 5.4606 9.27771 5.4628Z" fill="#BCC3DB"/>
<path d="M12.8513 18.633C12.8513 19.2938 12.8557 19.9547 12.8491 20.6155C12.8403 21.6045 12.3298 22.1024 11.3419 22.1068C9.9805 22.1112 8.61912 22.1134 7.25774 22.1046C6.26102 22.098 5.77702 21.5715 5.77481 20.5913C5.7726 19.2696 5.77923 17.9502 5.7726 16.6285C5.76597 15.5734 6.33395 15.0734 7.3373 15.0535C8.66111 15.0271 9.98713 15.0249 11.3109 15.0558C12.3231 15.0778 12.869 15.6064 12.8513 16.6527C12.8425 17.3114 12.8513 17.9722 12.8513 18.633Z" fill="#BCC3DB"/>
<path d="M5.77481 37.7508C5.71514 34.189 5.71072 34.2815 9.2092 34.3211C9.98271 34.3299 10.7562 34.3101 11.5275 34.3409C12.3629 34.374 12.8226 34.8542 12.8403 35.6692C12.8712 37.0988 12.8602 38.5306 12.8447 39.9624C12.8359 40.8523 12.3077 41.3347 11.4612 41.3611C10.0269 41.4074 8.59039 41.4118 7.15608 41.3589C6.24555 41.3259 5.76818 40.773 5.77481 39.8412C5.77923 39.1451 5.77481 38.4469 5.77481 37.7508Z" fill="#BCC3DB"/>
<path d="M41.1464 37.8521C41.1464 37.1538 41.1353 36.4577 41.1508 35.7595C41.1707 34.896 41.595 34.3585 42.49 34.3409C43.9619 34.3145 45.4338 34.3145 46.9057 34.3431C47.7411 34.3607 48.1941 34.863 48.2096 35.678C48.2383 37.1076 48.2317 38.5393 48.214 39.9711C48.203 40.8633 47.6682 41.3346 46.8217 41.3633C45.425 41.4095 44.0238 41.4051 42.6271 41.3699C41.6679 41.3457 41.1397 40.828 41.1441 39.8324C41.1486 39.1737 41.1441 38.5129 41.1464 37.8521Z" fill="#BCC3DB"/>
<path d="M12.8513 47.5553C12.9132 51.1347 12.8977 51.0092 9.4081 50.9739C8.67216 50.9651 7.93622 50.9761 7.20028 50.9651C6.31627 50.9519 5.80796 50.4959 5.78807 49.6192C5.75492 48.1896 5.76597 46.7557 5.78365 45.3261C5.7947 44.4362 6.32732 43.9604 7.17597 43.9339C8.57271 43.8877 9.97387 43.8921 11.3706 43.9273C12.332 43.9516 12.8557 44.4736 12.8513 45.467C12.8491 46.1609 12.8513 46.8592 12.8513 47.5553Z" fill="#BCC3DB"/>
<path d="M48.2185 47.4913C48.2185 48.1896 48.2383 48.8856 48.2118 49.5839C48.1787 50.454 47.719 50.9496 46.8283 50.9606C45.394 50.976 43.9575 50.9782 42.5232 50.9584C41.6304 50.9474 41.1662 50.4408 41.153 49.5707C41.1287 48.1763 41.1397 46.782 41.1486 45.3877C41.1552 44.4449 41.6878 43.9537 42.5917 43.9272C43.9885 43.8876 45.3896 43.8876 46.7864 43.9272C47.6903 43.9537 48.2096 44.4581 48.2185 45.3987C48.2251 46.0969 48.2207 46.7952 48.2185 47.4913Z" fill="#BCC3DB"/>
<path d="M15.4437 8.94763C15.4459 8.25156 15.4326 7.55329 15.4481 6.85722C15.468 5.97832 15.9211 5.4827 16.8117 5.47169C18.246 5.45407 19.6803 5.46508 21.1146 5.46949C21.9633 5.47169 22.4495 5.95189 22.4804 6.74708C22.5379 8.21191 22.5335 9.68115 22.4893 11.146C22.4628 12.0117 21.9147 12.4875 21.055 12.5051C19.6582 12.5359 18.2593 12.5425 16.8625 12.5029C15.9564 12.4764 15.4393 11.9808 15.4415 11.0336C15.4415 10.3398 15.4415 9.6437 15.4437 8.94763Z" fill="#BCC3DB"/>
<path d="M12.8491 28.1578C12.8469 28.8913 12.869 29.627 12.8425 30.3605C12.8093 31.2372 12.3209 31.7218 11.4435 31.735C10.0446 31.7593 8.64564 31.7527 7.24669 31.7394C6.31848 31.7306 5.79912 31.246 5.78365 30.3121C5.76155 28.9177 5.76376 27.5212 5.78365 26.1268C5.79691 25.1951 6.30743 24.7039 7.24006 24.6928C8.60144 24.6774 9.96503 24.684 11.3264 24.6884C12.3099 24.6928 12.8314 25.1841 12.8491 26.1731C12.858 26.8361 12.8491 27.4969 12.8491 28.1578Z" fill="#BCC3DB"/>
<path d="M18.9355 31.7439C18.2372 31.7439 17.5366 31.7615 16.8382 31.7373C15.9653 31.7086 15.4636 31.2482 15.4525 30.3627C15.4326 28.9331 15.4326 27.5014 15.4525 26.0718C15.4636 25.1885 15.9608 24.7105 16.8338 24.6951C18.2305 24.6708 19.6295 24.6818 21.0284 24.6884C21.9743 24.6929 22.4716 25.2237 22.4981 26.1202C22.5401 27.5124 22.5423 28.9089 22.4981 30.3011C22.4694 31.2659 21.908 31.7571 20.9224 31.7439C20.2616 31.7373 19.5986 31.7439 18.9355 31.7439Z" fill="#BCC3DB"/>
<path d="M18.9223 50.9651C18.2239 50.9651 17.5233 50.9761 16.825 50.9628C15.9365 50.943 15.4614 50.4694 15.4503 49.5883C15.4326 48.1587 15.4393 46.727 15.4503 45.2974C15.457 44.3876 16.0095 43.9515 16.8493 43.9273C18.246 43.8854 19.645 43.8942 21.0417 43.9229C21.9611 43.9427 22.4782 44.4691 22.5003 45.3811C22.5335 46.738 22.5291 48.0949 22.507 49.4518C22.4893 50.4716 21.9611 51.0003 20.9069 50.9717C20.2461 50.954 19.5831 50.9695 18.9201 50.9695C18.9223 50.9695 18.9223 50.9673 18.9223 50.9651Z" fill="#BCC3DB"/>
<path d="M34.8875 50.9695C34.2621 50.9695 33.6367 50.9629 33.0112 50.9717C31.999 50.9871 31.515 50.4364 31.4929 49.4848C31.462 48.1279 31.462 46.771 31.4929 45.4141C31.515 44.4471 32.0631 43.9295 33.0311 43.9185C34.3925 43.9008 35.7539 43.8876 37.113 43.9251C38.0147 43.9493 38.5518 44.4229 38.5518 45.3767C38.554 46.771 38.5606 48.1632 38.5474 49.5575C38.5385 50.5003 38.0302 50.9629 37.0932 50.9673C36.3572 50.9717 35.6213 50.9673 34.8875 50.9695Z" fill="#BCC3DB"/>
<path d="M15.4393 18.4458C15.4393 17.8224 15.4459 17.199 15.4393 16.5757C15.4282 15.5712 15.9675 15.0756 16.9266 15.0536C18.2858 15.0227 19.6494 15.0249 21.0086 15.0514C21.9169 15.069 22.4716 15.558 22.4981 16.4787C22.5357 17.8709 22.5379 19.2652 22.5025 20.6596C22.4782 21.6288 21.9346 22.1156 20.9423 22.1068C19.6184 22.0936 18.2946 22.1002 16.9708 22.1046C15.9144 22.1068 15.426 21.5693 15.4393 20.534C15.4459 19.8401 15.4393 19.1441 15.4393 18.4458Z" fill="#BCC3DB"/>
<path d="M15.4437 37.8014C15.4437 37.1053 15.4304 36.407 15.4481 35.711C15.4702 34.8299 15.9343 34.3453 16.8228 34.3342C18.2195 34.3166 19.6184 34.3298 21.0152 34.3254C21.9655 34.321 22.4694 34.8299 22.4981 35.733C22.5423 37.1251 22.5335 38.5195 22.5025 39.9138C22.4804 40.894 21.8948 41.3698 20.9378 41.3808C19.614 41.3941 18.2902 41.4007 16.9664 41.3786C15.9432 41.361 15.4128 40.8324 15.4393 39.7839C15.4547 39.123 15.4415 38.4644 15.4415 37.8036C15.4415 37.8014 15.4437 37.8014 15.4437 37.8014Z" fill="#BCC3DB"/>
<path d="M38.554 37.8014C38.554 38.4975 38.5518 39.1958 38.554 39.8919C38.5584 40.839 38.0479 41.3413 37.1418 41.3677C35.745 41.4096 34.3461 41.4007 32.9493 41.3699C32.03 41.3501 31.5128 40.8236 31.4929 39.9117C31.462 38.5195 31.4532 37.123 31.4974 35.7309C31.5261 34.8277 32.03 34.3211 32.9803 34.3233C34.3417 34.3277 35.703 34.3233 37.0622 34.3255C38.0589 34.3255 38.5518 34.8321 38.5518 35.819C38.5562 36.482 38.554 37.1406 38.554 37.8014Z" fill="#BCC3DB"/>
<path d="M36.7396 15.536C36.9959 15.2804 37.2655 15.0117 37.533 14.7452C38.4678 13.8112 39.4026 12.8772 40.3397 11.9455C40.7839 11.5027 41.4978 11.5071 41.9331 11.9455C42.3773 12.3926 42.3729 13.0931 41.9243 13.5425C40.7485 14.7165 39.5706 15.8884 38.3927 17.0625C38.3706 17.0845 38.3485 17.1087 38.3153 17.144C38.5562 17.3819 38.7971 17.6176 39.0358 17.8533C39.9883 18.8004 40.932 19.7564 41.8933 20.6948C42.4304 21.2213 42.3508 22.0363 41.8049 22.4394C41.3696 22.761 40.7508 22.728 40.3507 22.3381C39.7739 21.7742 39.2059 21.1992 38.6335 20.6287C38.0103 20.0076 37.3871 19.3864 36.7639 18.7652C36.7528 18.7542 36.7418 18.7454 36.7175 18.7234C36.6025 18.8423 36.4876 18.9612 36.3705 19.078C35.2898 20.1573 34.2091 21.2367 33.1239 22.3138C32.6046 22.8293 31.8134 22.761 31.3891 22.1773C31.0863 21.7609 31.1217 21.153 31.4907 20.7697C31.9151 20.3292 32.3549 19.9018 32.788 19.4701C33.2919 18.9657 33.798 18.4634 34.3041 17.959C34.5163 17.7475 34.7328 17.5405 34.945 17.329C35.0069 17.2695 35.0643 17.2035 35.1329 17.1286C34.9494 16.9479 34.7704 16.7761 34.5936 16.5999C33.5726 15.5822 32.5493 14.5668 31.5305 13.5469C30.9294 12.9455 31.1438 11.9587 31.9349 11.6812C32.3637 11.5314 32.7659 11.6129 33.0908 11.9323C34.1825 13.0116 35.2677 14.0976 36.355 15.1813C36.4832 15.3025 36.6092 15.4148 36.7396 15.536Z" fill="#BCC3DB"/>
</svg>
