<svg width="19" height="20" viewBox="0 0 19 20" fill="none" xmlns="http://www.w3.org/2000/svg">
<path d="M7.04035 0C4.42022 0 2.29012 2.13011 2.29012 4.75024C2.29012 7.32037 4.30022 9.40047 6.92035 9.49048C7.00035 9.48048 7.08036 9.48048 7.14036 9.49048H7.21036C8.43978 9.44946 9.60506 8.93193 10.4598 8.04731C11.3146 7.1627 11.7918 5.98034 11.7906 4.75024C11.7906 2.13011 9.66049 0 7.04035 0ZM12.1206 12.1496C9.33047 10.2895 4.78024 10.2895 1.9701 12.1496C0.700035 12.9997 0 14.1497 0 15.3798C0 16.6098 0.700035 17.7499 1.9601 18.5899C3.36017 19.53 5.20026 20 7.04035 20C8.88045 20 10.7205 19.53 12.1206 18.5899C13.3807 17.7399 14.0807 16.5998 14.0807 15.3598C14.0707 14.1297 13.3807 12.9897 12.1206 12.1496ZM18.0309 5.33827C18.1909 7.27837 16.8108 8.97845 14.9008 9.20846H14.8507C14.7907 9.20846 14.7307 9.20846 14.6807 9.22846C13.7107 9.27847 12.8206 8.96845 12.1506 8.39842C13.1807 7.47838 13.7707 6.09831 13.6507 4.59823C13.5821 3.8182 13.3172 3.06821 12.8806 2.41812C13.4047 2.16319 13.9828 2.03957 14.5653 2.05792C15.1477 2.07628 15.717 2.23606 16.2239 2.52348C16.7308 2.8109 17.1602 3.21733 17.475 3.70771C17.7898 4.1981 17.9806 4.75771 18.0309 5.33827Z" fill="#27AAE1"/>
</svg>
