<svg width="17" height="17" viewBox="0 0 17 17" fill="none" xmlns="http://www.w3.org/2000/svg">
<path fill-rule="evenodd" clip-rule="evenodd" d="M12.1097 0.0152333C13.2429 -0.0960007 14.3664 0.401652 15.4824 1.51763C16.5983 2.6336 17.096 3.7571 16.9848 4.89029C16.8775 5.98345 16.2182 6.88944 15.4824 7.62525L7.45304 15.6546C7.22383 15.8764 6.92423 16.0702 6.63515 16.2155C6.34776 16.3599 6.00925 16.4873 5.68654 16.5334L2.619 16.9716C1.86368 17.0756 1.141 16.8693 0.633979 16.3644C0.125869 15.8583 -0.0819678 15.1354 0.0291198 14.3757C0.0291946 14.3752 0.0292696 14.3747 0.0293447 14.3742L0.466241 11.3159C0.466303 11.3155 0.466366 11.315 0.466429 11.3146C0.512271 10.9876 0.639013 10.6467 0.784501 10.3572C0.930295 10.0671 1.12659 9.76577 1.35427 9.53809L9.37473 1.51763C10.1106 0.781812 11.0165 0.122537 12.1097 0.0152333ZM12.2588 1.53467C11.6929 1.59022 11.1027 1.94877 10.4543 2.5972L2.43383 10.6177C2.35616 10.6953 2.24711 10.8469 2.14863 11.0428C2.05004 11.239 1.99372 11.4166 1.97833 11.5269L1.97798 11.5294L1.54032 14.593L1.5399 14.5959C1.48864 14.9451 1.5913 15.1631 1.71135 15.2826C1.83263 15.4034 2.05597 15.5075 2.40904 15.4594C2.40964 15.4593 2.41025 15.4592 2.41085 15.4591L5.47062 15.022C5.57539 15.007 5.75089 14.9512 5.94951 14.8514C6.14366 14.7538 6.30044 14.6441 6.38754 14.5609L14.4028 6.54569C15.0512 5.89726 15.4098 5.30705 15.4653 4.74115C15.5169 4.21529 15.3225 3.51687 14.4028 2.5972C13.4831 1.67752 12.7847 1.48305 12.2588 1.53467Z" fill="#F1F4F8"/>
</svg>
