<svg width="28" height="28" viewBox="0 0 28 28" fill="none" xmlns="http://www.w3.org/2000/svg">
<g clip-path="url(#clip0_0_271)">
<path fill-rule="evenodd" clip-rule="evenodd" d="M11.3071 3.92304C10.8205 3.59621 10.1795 3.59621 9.69284 3.92304L9.69076 3.92443L5.02672 7.03767C5.02633 7.03793 5.02595 7.03819 5.02556 7.03845C4.62037 7.31158 4.37509 7.76531 4.37498 8.24801C4.37498 8.2479 4.37498 8.24812 4.37498 8.24801L4.37981 15.4583H16.6298L16.625 8.24892C16.625 7.75825 16.3851 7.30984 15.9793 7.04171L15.9759 7.03944L11.3092 3.92443L11.3071 3.92304ZM16.631 17.2083H4.38098L4.38605 24.7917H9.62498V21.2917C9.62498 20.8084 10.0167 20.4167 10.5 20.4167C10.9832 20.4167 11.375 20.8084 11.375 21.2917V24.7902L16.6361 24.7815L16.631 17.2083ZM10.5 26.5417H23.1667C23.2133 26.5493 23.2612 26.5533 23.31 26.5533C23.3588 26.5533 23.4066 26.5493 23.4532 26.5417H25.6666C26.1499 26.5417 26.5416 26.1499 26.5416 25.6667C26.5416 25.1834 26.1499 24.7917 25.6666 24.7917H24.185V21.7599C25.5407 21.385 26.5416 20.1386 26.5416 18.6667V16.3333C26.5416 14.5668 25.0999 13.125 23.3333 13.125C21.5667 13.125 20.125 14.5668 20.125 16.3333V18.6667C20.125 20.1217 21.103 21.3563 22.435 21.7466V24.7917H18.3861L18.375 8.24833C18.375 8.24814 18.375 8.24853 18.375 8.24833C18.3748 7.17663 17.8454 6.17809 16.9458 5.58285C16.9452 5.58244 16.9446 5.58203 16.944 5.58162L12.2828 2.4703C12.2825 2.47006 12.2821 2.46982 12.2818 2.46959C11.2056 1.74738 9.7945 1.74736 8.71828 2.46952C8.71789 2.46978 8.7175 2.47004 8.71712 2.4703L4.05253 5.5839L4.04991 5.58566C3.17255 6.17588 2.62498 7.16828 2.62498 8.24833L2.63033 16.2361C2.62679 16.268 2.62498 16.3005 2.62498 16.3333C2.62498 16.3666 2.62684 16.3995 2.63046 16.4318L2.63605 24.7917H2.33331C1.85006 24.7917 1.45831 25.1834 1.45831 25.6667C1.45831 26.1499 1.85006 26.5417 2.33331 26.5417H3.36922C3.41647 26.5495 3.46458 26.5534 3.5131 26.5533L10.5 26.5417ZM23.3333 14.875C22.5332 14.875 21.875 15.5332 21.875 16.3333V18.6667C21.875 19.4668 22.5332 20.125 23.3333 20.125C24.1334 20.125 24.7916 19.4668 24.7916 18.6667V16.3333C24.7916 15.5332 24.1334 14.875 23.3333 14.875Z" fill="#515150"/>
<path fill-rule="evenodd" clip-rule="evenodd" d="M8.64384 8.64384C9.13613 8.15156 9.80381 7.875 10.5 7.875C11.1962 7.875 11.8639 8.15156 12.3562 8.64384C12.8484 9.13613 13.125 9.80381 13.125 10.5C13.125 11.1962 12.8484 11.8639 12.3562 12.3562C11.8639 12.8484 11.1962 13.125 10.5 13.125C9.80381 13.125 9.13613 12.8484 8.64384 12.3562C8.15156 11.8639 7.875 11.1962 7.875 10.5C7.875 9.80381 8.15156 9.13613 8.64384 8.64384ZM10.5 9.625C10.2679 9.625 10.0454 9.71719 9.88128 9.88128C9.71719 10.0454 9.625 10.2679 9.625 10.5C9.625 10.7321 9.71719 10.9546 9.88128 11.1187C10.0454 11.2828 10.2679 11.375 10.5 11.375C10.7321 11.375 10.9546 11.2828 11.1187 11.1187C11.2828 10.9546 11.375 10.7321 11.375 10.5C11.375 10.2679 11.2828 10.0454 11.1187 9.88128C10.9546 9.71719 10.7321 9.625 10.5 9.625Z" fill="#515150"/>
</g>
<defs>
<clipPath id="clip0_0_271">
<rect width="28" height="28" fill="white"/>
</clipPath>
</defs>
</svg>
