<svg width="18" height="18" viewBox="0 0 18 18" fill="none" xmlns="http://www.w3.org/2000/svg">
<path d="M13.904 5.07682C14.9424 5.92882 15.9736 6.78882 17.0232 7.62562C17.2728 7.82482 17.3528 7.96722 17.084 8.19202C17.0136 8.25042 16.9536 8.32722 16.9048 8.40482C16.7864 8.59522 16.6704 8.61682 16.4992 8.45522C16.3104 8.27762 16.0984 8.12482 15.8384 7.91442V8.37682C15.8384 10.748 15.8384 13.1184 15.8384 15.4896C15.8384 16.124 15.6424 16.3192 15.0072 16.3192C11.1048 16.3192 7.20239 16.3192 3.2992 16.3192C2.6952 16.3192 2.4912 16.1136 2.4904 15.5032C2.4896 13.132 2.4904 10.7616 2.4904 8.39042C2.4904 8.25922 2.4904 8.12882 2.4904 7.93362C2.3256 8.05762 2.2072 8.15362 2.0816 8.24002C1.9216 8.35042 1.7672 8.62722 1.6168 8.55682C1.3928 8.45362 1.224 8.21122 1.06 8.00562C0.921597 7.83202 1.136 7.78242 1.22 7.71362C2.236 6.87602 3.2584 6.04482 4.28 5.21282C5.67279 4.07842 7.06639 2.94562 8.45839 1.81042C8.98399 1.38162 9.34159 1.38002 9.87519 1.81682C10.7704 2.54962 11.664 3.28482 12.5584 4.01842C12.6496 4.09122 12.6592 4.21042 12.7208 4.30002C13.02 4.76802 13.2992 5.24962 13.6152 5.72402C13.7864 5.60882 13.716 5.46162 13.744 5.34322C13.7688 5.23842 13.7016 5.07362 13.9056 5.07602L13.904 5.07682Z" fill="#3774B7"/>
<path d="M12.6184 4.32394C12.528 4.23674 12.5648 4.12394 12.5576 4.01994C12.7232 3.72794 12.6152 3.41194 12.624 3.10874C12.6312 2.86954 12.7032 2.75114 12.9424 2.79994C13.2424 2.86074 13.5968 2.62714 13.8448 2.96474C13.9128 3.57114 13.86 4.17914 13.8736 4.78714C13.88 5.05434 13.7264 5.03194 13.564 4.93194C13.3728 4.81354 13.204 4.66234 13.0328 4.51674C12.9136 4.41514 12.8024 4.28954 12.6184 4.32474V4.32394Z" fill="#3774B7"/>
<path d="M12.6184 4.32398C12.632 4.24878 12.5848 4.16478 12.6672 4.08158C13.032 4.37678 13.3992 4.67278 13.8448 5.03278V2.96558C14 3.38558 13.8872 3.82078 13.9128 4.24878C13.9296 4.52398 13.9088 4.80158 13.9048 5.07758C13.7568 5.25118 13.8664 5.45598 13.8392 5.64478C13.8232 5.75118 13.8304 5.86958 13.6992 5.89278C13.5888 5.91278 13.548 5.80798 13.5 5.73118C13.2064 5.26238 12.9128 4.79358 12.6192 4.32478L12.6184 4.32398Z" fill="#FAFAFA"/>
<path d="M9.1296 15.3423C7.3576 15.3423 5.5864 15.3359 3.8144 15.3487C3.5352 15.3503 3.4584 15.2759 3.4592 14.9951C3.4704 12.4639 3.4672 9.93275 3.4624 7.40155C3.4624 7.21435 3.504 7.07995 3.656 6.95675C5.4344 5.51595 7.2112 4.07275 8.9792 2.61915C9.148 2.47995 9.2368 2.52555 9.3744 2.63835C11.1152 4.06235 12.8576 5.48555 14.6064 6.89835C14.804 7.05755 14.8688 7.22315 14.868 7.47275C14.8584 9.96395 14.8552 12.4551 14.8712 14.9463C14.8736 15.2935 14.7632 15.3535 14.4448 15.3503C12.6728 15.3351 10.9016 15.3431 9.1296 15.3431V15.3423Z" fill="#FEFEFE"/>
<path d="M6.3488 9.7249C7.1832 8.8121 8.0904 8.8321 8.7576 9.7577C9.132 9.2177 9.6464 8.9761 10.2928 9.0737C10.8784 9.1617 11.1968 9.4977 11.2832 10.1073C11.412 11.0209 11.384 11.9465 11.3152 12.8569C11.12 13.1201 11.1888 13.0593 10.68 13.0593C10.5072 13.1137 10.2 13.0465 10.2064 12.8097C10.2232 12.2113 10.2152 11.6113 10.2104 11.0121C10.2088 10.8537 10.1856 10.6953 10.1696 10.5369C10.1368 10.2113 9.9856 9.9801 9.6424 9.9313C9.2608 9.8777 9.0448 10.1073 8.908 10.4193C8.7936 10.6809 8.816 10.9665 8.8176 11.2465C8.8192 11.7657 8.812 12.2849 8.8216 12.8041C8.8248 12.9857 8.7824 13.0513 8.5824 13.0593C7.6928 13.0961 7.6928 13.1041 7.6928 12.2185C7.6928 11.7257 7.7 11.2329 7.6888 10.7409C7.6768 10.2041 7.4664 9.9361 7.072 9.9241C6.6744 9.9121 6.3632 10.2121 6.3384 10.7065C6.308 11.3041 6.3264 11.9041 6.3256 12.5033C6.32507 12.8697 6.14747 13.0529 5.7928 13.0529C5.66 13.0529 5.5256 13.0441 5.3936 13.0553C5.2328 13.0689 5.1928 12.9985 5.1928 12.8481C5.1976 11.6897 5.1976 10.5313 5.1928 9.3729C5.192 9.2009 5.2472 9.1289 5.4216 9.1457C5.5272 9.1561 5.6344 9.1481 5.7408 9.1481C6.11734 9.1481 6.32 9.34037 6.3488 9.7249Z" fill="#3774B7"/>
<path d="M11.9312 8.30309C11.9424 8.07509 11.8472 7.85669 12.1216 7.76389C12.5264 7.62709 12.9336 7.55829 13.2952 7.84629C13.5384 8.03909 13.5712 8.32389 13.4856 8.61189C13.3784 8.97189 13.1048 9.21029 12.8384 9.45189C12.7216 9.55829 12.6072 9.66709 12.4232 9.83749C12.7496 9.83749 13.0056 9.84069 13.2616 9.83589C13.408 9.83349 13.5096 9.83909 13.508 10.0415C13.5064 10.2415 13.4336 10.2911 13.2504 10.2863C12.892 10.2759 12.532 10.2903 12.1736 10.2791C12.056 10.2751 11.8776 10.3671 11.8344 10.1823C11.8 10.0359 11.7888 9.87109 11.9352 9.74149C12.1544 9.54789 12.3592 9.33909 12.5672 9.13269C12.6616 9.03909 12.7552 8.94389 12.836 8.83909C12.984 8.64629 13.0544 8.41669 12.9032 8.21349C12.7448 7.99909 12.5008 8.05669 12.2824 8.13429C12.1712 8.17349 12.068 8.23589 11.9312 8.30309Z" fill="#3774B7"/>
</svg>
