<svg width="14" height="13" viewBox="0 0 14 13" fill="none" xmlns="http://www.w3.org/2000/svg">
<path d="M14 5.44542C14 4.66375 13.615 3.94042 12.9617 3.50875L8.295 0.39375C7.51333 -0.13125 6.48667 -0.13125 5.705 0.39375L1.03833 3.50875C0.396667 3.94042 0 4.66375 0 5.44542V12.0721C0 12.3987 0.256667 12.6554 0.583333 12.6554H13.4167C13.7433 12.6554 14 12.3987 14 12.0721V5.44542ZM7 9.73875C5.88 9.73875 4.95833 8.81708 4.95833 7.69708C4.95833 6.57708 5.88 5.65542 7 5.65542C8.12 5.65542 9.04167 6.57708 9.04167 7.69708C9.04167 8.81708 8.12 9.73875 7 9.73875Z" fill="#27AAE1"/>
</svg>
